<?xml version="1.0" encoding="utf-8"?>
<!-- Generator: Adobe Illustrator 27.5.0, SVG Export Plug-In . SVG Version: 6.00 Build 0)  -->
<svg version="1.1" xmlns="http://www.w3.org/2000/svg" xmlns:xlink="http://www.w3.org/1999/xlink" x="0px" y="0px"
	 viewBox="0 0 650 500" style="enable-background:new 0 0 650 500;" xml:space="preserve">
<g id="BACKGROUND">
	<g id="XMLID_23_">
		<rect id="XMLID_24_" y="0" style="fill:#FFFFFF;" width="650" height="500"/>
	</g>
</g>
<g id="OBJECTS">
	<g id="XMLID_4_">
		<g id="XMLID_181_">
			
				<linearGradient id="XMLID_00000141421037121682487130000004293616052702353077_" gradientUnits="userSpaceOnUse" x1="312.6666" y1="435.7217" x2="312.6666" y2="85.0145">
				<stop  offset="0" style="stop-color:#DFEDF2"/>
				<stop  offset="1" style="stop-color:#E8F8FF"/>
			</linearGradient>
			<path id="XMLID_226_" style="fill:url(#XMLID_00000141421037121682487130000004293616052702353077_);" d="M312.667,71.404
				c-140.593,0-254.571,113.977-254.571,254.571c0,41.352,9.862,80.407,27.361,114.929h454.419
				c17.499-34.522,27.361-73.577,27.361-114.929C567.237,185.381,453.26,71.404,312.667,71.404z"/>
			
				<linearGradient id="XMLID_00000025402822564947340860000013247062027805794946_" gradientUnits="userSpaceOnUse" x1="141.4653" y1="435.722" x2="141.4653" y2="85.0148">
				<stop  offset="0" style="stop-color:#DFEDF2"/>
				<stop  offset="1" style="stop-color:#E8F8FF"/>
			</linearGradient>
			
				<circle id="XMLID_225_" style="fill:url(#XMLID_00000025402822564947340860000013247062027805794946_);" cx="141.465" cy="91.866" r="19.108"/>
			
				<linearGradient id="XMLID_00000080885414003140544870000012689534458085994628_" gradientUnits="userSpaceOnUse" x1="502.6915" y1="435.7221" x2="502.6915" y2="85.0152">
				<stop  offset="0" style="stop-color:#DFEDF2"/>
				<stop  offset="1" style="stop-color:#E8F8FF"/>
			</linearGradient>
			
				<circle id="XMLID_97_" style="fill:url(#XMLID_00000080885414003140544870000012689534458085994628_);" cx="502.691" cy="117.23" r="4.003"/>
			
				<linearGradient id="XMLID_00000173132888004349359910000017756365994167036305_" gradientUnits="userSpaceOnUse" x1="325" y1="435.7202" x2="325" y2="85.0146">
				<stop  offset="0" style="stop-color:#DFEDF2"/>
				<stop  offset="1" style="stop-color:#E8F8FF"/>
			</linearGradient>
			
				<circle id="XMLID_676_" style="fill:url(#XMLID_00000173132888004349359910000017756365994167036305_);" cx="325" cy="50.055" r="7.893"/>
			<circle id="XMLID_101_" style="fill:#FFFFFF;" cx="443.039" cy="134.513" r="4.003"/>
			
				<linearGradient id="XMLID_00000080178794940449300930000002738616822472319632_" gradientUnits="userSpaceOnUse" x1="597.4653" y1="435.7219" x2="597.4653" y2="85.0137">
				<stop  offset="0" style="stop-color:#DFEDF2"/>
				<stop  offset="1" style="stop-color:#E8F8FF"/>
			</linearGradient>
			
				<circle id="XMLID_219_" style="fill:url(#XMLID_00000080178794940449300930000002738616822472319632_);" cx="597.465" cy="374.763" r="11.201"/>
			
				<ellipse id="XMLID_217_" transform="matrix(0.5757 -0.8177 0.8177 0.5757 34.5757 557.4021)" style="fill:#FFFFFF;" cx="554.333" cy="245.388" rx="18.333" ry="18.333"/>
			<path id="XMLID_215_" style="fill:#FFFFFF;" d="M91.102,415.852c0,8.244-6.683,14.927-14.926,14.927s-14.926-6.683-14.926-14.927
				c0-8.243,6.683-14.926,14.926-14.926S91.102,407.609,91.102,415.852z"/>
			
				<linearGradient id="XMLID_00000103223664314034162990000010806529183289754508_" gradientUnits="userSpaceOnUse" x1="105.4059" y1="435.7217" x2="105.4059" y2="85.0146">
				<stop  offset="0" style="stop-color:#DFEDF2"/>
				<stop  offset="1" style="stop-color:#E8F8FF"/>
			</linearGradient>
			
				<circle id="XMLID_211_" style="fill:url(#XMLID_00000103223664314034162990000010806529183289754508_);" cx="105.406" cy="182.55" r="24.333"/>
			
				<ellipse id="XMLID_210_" transform="matrix(0.9735 -0.2285 0.2285 0.9735 -9.0328 59.8004)" style="fill:#FFFFFF;" cx="253.754" cy="68.912" rx="39.019" ry="39.019"/>
			<g id="XMLID_53_">
				
					<line id="XMLID_54_" style="fill:none;stroke:#FFFFFF;stroke-linecap:round;stroke-miterlimit:10;" x1="87.102" y1="237.144" x2="184.106" y2="237.144"/>
				
					<line id="XMLID_55_" style="fill:none;stroke:#FFFFFF;stroke-linecap:round;stroke-miterlimit:10;" x1="527.196" y1="340.187" x2="624.2" y2="340.187"/>
				
					<line id="XMLID_56_" style="fill:none;stroke:#FFFFFF;stroke-linecap:round;stroke-miterlimit:10;" x1="364.549" y1="106.388" x2="461.553" y2="106.388"/>
			</g>
			<g id="XMLID_17_">
				<path id="XMLID_52_" style="fill:#FFFFFF;" d="M99.302,376.894h-3.707v-3.707c0-0.541-0.439-0.98-0.98-0.98
					c-0.541,0-0.98,0.439-0.98,0.98v3.707h-3.707c-0.541,0-0.98,0.439-0.98,0.98c0,0.541,0.439,0.98,0.98,0.98h3.707v3.707
					c0,0.541,0.439,0.98,0.98,0.98c0.541,0,0.98-0.439,0.98-0.98v-3.707h3.707c0.541,0,0.98-0.439,0.98-0.98
					C100.282,377.332,99.843,376.894,99.302,376.894z"/>
				
					<linearGradient id="XMLID_00000169529774143545847820000004538482765097097100_" gradientUnits="userSpaceOnUse" x1="523.8505" y1="435.7214" x2="523.8505" y2="85.0144">
					<stop  offset="0" style="stop-color:#DFEDF2"/>
					<stop  offset="1" style="stop-color:#E8F8FF"/>
				</linearGradient>
				<path id="XMLID_50_" style="fill:url(#XMLID_00000169529774143545847820000004538482765097097100_);" d="M530.985,138.518
					h-5.643v-5.643c0-0.824-0.668-1.492-1.492-1.492c-0.824,0-1.492,0.668-1.492,1.492v5.643h-5.643
					c-0.824,0-1.492,0.668-1.492,1.492c0,0.824,0.668,1.492,1.492,1.492h5.643v5.643c0,0.824,0.668,1.492,1.492,1.492
					c0.824,0,1.492-0.668,1.492-1.492v-5.643h5.643c0.824,0,1.492-0.668,1.492-1.492
					C532.477,139.186,531.809,138.518,530.985,138.518z"/>
				<path id="XMLID_51_" style="fill:#FFFFFF;" d="M506.341,406.622h-3.707v-3.707c0-0.541-0.439-0.98-0.98-0.98
					c-0.541,0-0.98,0.439-0.98,0.98v3.707h-3.707c-0.541,0-0.98,0.439-0.98,0.98s0.439,0.98,0.98,0.98h3.707v3.707
					c0,0.541,0.439,0.98,0.98,0.98c0.541,0,0.98-0.439,0.98-0.98v-3.707h3.707c0.541,0,0.98-0.439,0.98-0.98
					S506.882,406.622,506.341,406.622z"/>
			</g>
		</g>
		<g id="XMLID_63_">
			<path id="XMLID_297_" style="fill:#FFFFFF;" d="M159.553,340.722v-10.031c0-0.981-0.795-1.777-1.777-1.777h-2.582
				c-0.756,0-1.425-0.514-1.594-1.25c-0.894-3.895-2.416-7.551-4.469-10.845c-0.41-0.658-0.332-1.505,0.216-2.053l1.816-1.816
				c0.694-0.694,0.694-1.819,0-2.513l-7.092-7.093c-0.694-0.694-1.819-0.694-2.513,0l-1.813,1.813
				c-0.548,0.548-1.396,0.625-2.053,0.215c-3.294-2.054-6.95-3.578-10.847-4.473c-0.737-0.169-1.25-0.838-1.25-1.594v-2.574
				c0-0.981-0.795-1.777-1.777-1.777h-10.031c-0.981,0-1.777,0.796-1.777,1.777v2.574c0,0.756-0.514,1.425-1.25,1.594
				c-3.898,0.895-7.555,2.418-10.849,4.472c-0.657,0.41-1.505,0.332-2.053-0.216l-1.811-1.812c-0.694-0.694-1.819-0.694-2.513,0
				l-7.092,7.093c-0.694,0.694-0.694,1.819,0,2.513l1.814,1.813c0.548,0.548,0.625,1.395,0.216,2.053
				c-2.053,3.295-3.575,6.951-4.469,10.847c-0.169,0.737-0.838,1.25-1.594,1.25h-2.579c-0.981,0-1.777,0.795-1.777,1.777v10.031
				c0,0.981,0.795,1.777,1.777,1.777h2.58c0.756,0,1.424,0.513,1.594,1.25c0.895,3.896,2.418,7.552,4.471,10.845
				c0.41,0.657,0.332,1.505-0.216,2.053l-1.816,1.816c-0.694,0.694-0.694,1.819,0,2.512l7.092,7.093
				c0.694,0.694,1.819,0.694,2.513,0l1.818-1.818c0.548-0.548,1.395-0.625,2.053-0.216c3.293,2.051,6.948,3.571,10.843,4.465
				c0.737,0.169,1.25,0.838,1.25,1.594v2.587c0,0.981,0.796,1.777,1.777,1.777h10.031c0.981,0,1.777-0.795,1.777-1.777v-2.588
				c0-0.756,0.514-1.425,1.251-1.594c3.895-0.893,7.549-2.415,10.842-4.465c0.657-0.41,1.505-0.332,2.053,0.216l1.819,1.819
				c0.694,0.694,1.819,0.694,2.513,0l7.092-7.093c0.694-0.694,0.694-1.819,0-2.513l-1.817-1.817
				c-0.548-0.548-0.626-1.396-0.216-2.053c2.052-3.293,3.574-6.948,4.469-10.843c0.169-0.737,0.838-1.25,1.594-1.25h2.583
				C158.757,342.499,159.553,341.703,159.553,340.722z M118.8,359.218c-12.985,0-23.496-10.532-23.496-23.518
				c0-12.965,10.512-23.498,23.496-23.498c12.985,0,23.497,10.533,23.497,23.498C142.297,348.686,131.785,359.218,118.8,359.218z"/>
			
				<linearGradient id="XMLID_00000101811764163493378450000001276390437667457952_" gradientUnits="userSpaceOnUse" x1="393.0368" y1="104.6887" x2="449.7033" y2="180.6886">
				<stop  offset="0" style="stop-color:#71D2F9"/>
				<stop  offset="1" style="stop-color:#51B9F8"/>
			</linearGradient>
			<path id="XMLID_658_" style="fill:url(#XMLID_00000101811764163493378450000001276390437667457952_);" d="M476.985,167.64
				v-10.031c0-0.981-0.795-1.777-1.777-1.777h-2.582c-0.756,0-1.425-0.514-1.594-1.251c-0.894-3.895-2.416-7.55-4.469-10.845
				c-0.41-0.658-0.332-1.505,0.216-2.053l1.816-1.816c0.694-0.694,0.694-1.819,0-2.512l-7.092-7.093
				c-0.694-0.694-1.819-0.694-2.513,0l-1.813,1.813c-0.548,0.548-1.396,0.625-2.053,0.215c-3.294-2.054-6.95-3.578-10.847-4.473
				c-0.737-0.169-1.25-0.838-1.25-1.594v-2.574c0-0.981-0.795-1.777-1.777-1.777h-10.031c-0.981,0-1.777,0.795-1.777,1.777v2.574
				c0,0.756-0.514,1.425-1.25,1.594c-3.898,0.895-7.555,2.418-10.849,4.472c-0.657,0.41-1.505,0.332-2.053-0.215l-1.811-1.812
				c-0.694-0.694-1.819-0.694-2.513,0l-7.092,7.093c-0.694,0.694-0.694,1.819,0,2.512l1.814,1.813
				c0.548,0.548,0.625,1.395,0.216,2.053c-2.053,3.295-3.575,6.951-4.469,10.847c-0.169,0.737-0.838,1.25-1.594,1.25h-2.579
				c-0.981,0-1.777,0.795-1.777,1.777v10.031c0,0.981,0.795,1.777,1.777,1.777h2.58c0.756,0,1.424,0.513,1.594,1.25
				c0.895,3.896,2.418,7.552,4.471,10.845c0.41,0.657,0.332,1.505-0.216,2.053l-1.816,1.816c-0.694,0.694-0.694,1.819,0,2.512
				l7.092,7.093c0.694,0.694,1.819,0.694,2.513,0l1.818-1.818c0.548-0.548,1.395-0.625,2.053-0.216
				c3.293,2.051,6.948,3.571,10.843,4.465c0.737,0.169,1.251,0.838,1.251,1.594v2.587c0,0.981,0.796,1.777,1.777,1.777h10.031
				c0.981,0,1.777-0.795,1.777-1.777v-2.588c0-0.756,0.514-1.425,1.251-1.594c3.895-0.893,7.549-2.414,10.842-4.465
				c0.657-0.41,1.505-0.332,2.053,0.216l1.819,1.819c0.694,0.694,1.819,0.694,2.513,0l7.092-7.093c0.694-0.694,0.694-1.819,0-2.512
				l-1.817-1.817c-0.548-0.548-0.626-1.396-0.216-2.053c2.052-3.293,3.574-6.948,4.469-10.843c0.169-0.737,0.838-1.25,1.594-1.25
				h2.583C476.19,169.416,476.985,168.621,476.985,167.64z M436.232,186.136c-12.985,0-23.496-10.532-23.496-23.518
				c0-12.965,10.512-23.498,23.496-23.498c12.985,0,23.497,10.533,23.497,23.498C459.73,175.603,449.218,186.136,436.232,186.136z"
				/>
			<path id="XMLID_298_" style="fill:#FFFFFF;" d="M87.343,306.987v-5.702c0-0.558-0.452-1.01-1.01-1.01h-1.468
				c-0.43,0-0.81-0.292-0.906-0.711c-0.508-2.214-1.373-4.292-2.54-6.165c-0.233-0.374-0.189-0.856,0.123-1.167l1.032-1.032
				c0.394-0.394,0.394-1.034,0-1.428l-4.032-4.032c-0.394-0.394-1.034-0.394-1.428,0l-1.031,1.031
				c-0.312,0.311-0.794,0.355-1.167,0.122c-1.872-1.168-3.951-2.034-6.166-2.543c-0.419-0.096-0.711-0.476-0.711-0.906v-1.463
				c0-0.558-0.452-1.01-1.01-1.01h-5.702c-0.558,0-1.01,0.452-1.01,1.01v1.463c0,0.43-0.292,0.81-0.711,0.906
				c-2.216,0.509-4.295,1.375-6.167,2.543c-0.374,0.233-0.856,0.189-1.167-0.122l-1.03-1.03c-0.394-0.395-1.034-0.395-1.428,0
				l-4.032,4.032c-0.394,0.394-0.394,1.034,0,1.428l1.031,1.031c0.311,0.311,0.355,0.793,0.123,1.167
				c-1.167,1.873-2.033,3.952-2.541,6.166c-0.096,0.419-0.476,0.711-0.906,0.711h-1.466c-0.558,0-1.01,0.452-1.01,1.01v5.702
				c0,0.558,0.452,1.01,1.01,1.01h1.467c0.43,0,0.81,0.292,0.906,0.711c0.509,2.215,1.375,4.293,2.542,6.165
				c0.233,0.374,0.189,0.856-0.123,1.167l-1.032,1.032c-0.394,0.394-0.394,1.034,0,1.428l4.032,4.032
				c0.394,0.395,1.034,0.395,1.428,0l1.033-1.033c0.311-0.311,0.793-0.355,1.167-0.123c1.872,1.166,3.95,2.03,6.164,2.538
				c0.419,0.096,0.711,0.476,0.711,0.906v1.471c0,0.558,0.452,1.01,1.01,1.01h5.702c0.558,0,1.01-0.452,1.01-1.01v-1.471
				c0-0.43,0.292-0.81,0.711-0.906c2.214-0.508,4.292-1.373,6.163-2.538c0.374-0.233,0.856-0.189,1.167,0.123l1.034,1.034
				c0.394,0.394,1.034,0.394,1.428,0l4.032-4.032c0.395-0.394,0.394-1.034,0-1.428l-1.033-1.033
				c-0.311-0.311-0.356-0.793-0.123-1.167c1.167-1.872,2.032-3.95,2.541-6.164c0.096-0.419,0.476-0.711,0.906-0.711h1.469
				C86.891,307.997,87.343,307.544,87.343,306.987z M64.176,315.982c-6.543,0-11.839-5.307-11.839-11.85
				c0-6.533,5.296-11.84,11.839-11.84c6.543,0,11.84,5.307,11.84,11.84C76.015,310.675,70.719,315.982,64.176,315.982z"/>
		</g>
		<g id="XMLID_36_">
			
				<linearGradient id="XMLID_00000098189133437473232110000007647141845641057419_" gradientUnits="userSpaceOnUse" x1="325" y1="-16275.498" x2="325" y2="-16024.0928" gradientTransform="matrix(1 0 0 -1 0 -15881.8896)">
				<stop  offset="0" style="stop-color:#CBE1F2"/>
				<stop  offset="1" style="stop-color:#AED2ED"/>
			</linearGradient>
			<path id="XMLID_20_" style="fill:url(#XMLID_00000098189133437473232110000007647141845641057419_);" d="M475.697,390.694
				H174.303c-11.452,0-20.735-9.284-20.735-20.735V175.623c0-11.452,9.284-20.735,20.735-20.735h301.394
				c11.452,0,20.735,9.284,20.735,20.735v194.336C496.432,381.411,487.149,390.694,475.697,390.694z"/>
			<path id="XMLID_255_" style="fill:#FFFFFF;" d="M488.025,176.528v174.946c0,3.212-2.603,5.815-5.815,5.815H167.799
				c-3.212,0-5.815-2.603-5.815-5.815V176.528c0-7.679,6.225-13.904,13.904-13.904h298.234
				C481.8,162.624,488.025,168.849,488.025,176.528z"/>
			
				<linearGradient id="XMLID_00000069377527120689380340000002827013576032290954_" gradientUnits="userSpaceOnUse" x1="324.9989" y1="-16321.9502" x2="324.9989" y2="-16266.9551" gradientTransform="matrix(1 0 0 -1 0 -15881.8896)">
				<stop  offset="0" style="stop-color:#CBE1F2"/>
				<stop  offset="1" style="stop-color:#AED2ED"/>
			</linearGradient>
			<polygon id="XMLID_15_" style="fill:url(#XMLID_00000069377527120689380340000002827013576032290954_);" points="
				357.709,441.007 292.289,441.007 299.159,401.137 300.959,390.697 349.039,390.697 350.839,401.137 			"/>
			
				<linearGradient id="XMLID_00000104675147938979349210000017900117189320435863_" gradientUnits="userSpaceOnUse" x1="299.1589" y1="-16277.8066" x2="350.8389" y2="-16277.8066" gradientTransform="matrix(1 0 0 -1 0 -15881.8896)">
				<stop  offset="0" style="stop-color:#CBE1F2"/>
				<stop  offset="1" style="stop-color:#AED2ED"/>
			</linearGradient>
			<polygon id="XMLID_9_" style="fill:url(#XMLID_00000104675147938979349210000017900117189320435863_);" points="350.839,401.137 
				299.159,401.137 300.959,390.697 349.039,390.697 			"/>
			
				<linearGradient id="XMLID_00000111891425059581883880000012731178995650457763_" gradientUnits="userSpaceOnUse" x1="324.9999" y1="-16329.0283" x2="324.9999" y2="-16304.3057" gradientTransform="matrix(1 0 0 -1 0 -15881.8896)">
				<stop  offset="0" style="stop-color:#CBE1F2"/>
				<stop  offset="1" style="stop-color:#AED2ED"/>
			</linearGradient>
			
				<rect id="XMLID_57_" x="270.615" y="432.437" style="fill:url(#XMLID_00000111891425059581883880000012731178995650457763_);" width="108.771" height="8.572"/>
			<rect id="XMLID_34_" x="223.543" y="299.705" style="fill:#8FABD8;" width="202.914" height="6.046"/>
		</g>
		<g id="XMLID_3_">
			<path id="XMLID_212_" style="fill:#FFFFFF;" d="M229.784,198.712h-82.667c-3.121,0-5.652-2.53-5.652-5.652v-51.343
				c0-3.121,2.53-5.652,5.652-5.652h82.667c3.122,0,5.652,2.53,5.652,5.652v51.343C235.436,196.182,232.905,198.712,229.784,198.712
				z"/>
			
				<linearGradient id="XMLID_00000155841783341670024070000000505628060937165217_" gradientUnits="userSpaceOnUse" x1="140.9652" y1="167.3884" x2="235.9354" y2="167.3884">
				<stop  offset="0" style="stop-color:#CBE1F2"/>
				<stop  offset="1" style="stop-color:#AED2ED"/>
			</linearGradient>
			<path id="XMLID_420_" style="fill:url(#XMLID_00000155841783341670024070000000505628060937165217_);" d="M229.783,135.565
				h-82.666c-3.392,0-6.152,2.76-6.152,6.152v51.343c0,3.392,2.76,6.152,6.152,6.152h82.666c3.392,0,6.152-2.76,6.152-6.152v-51.343
				C235.935,138.325,233.176,135.565,229.783,135.565z M234.935,141.717v9.51h-14.662v-14.662h9.51
				C232.624,136.565,234.935,138.876,234.935,141.717z M187.951,167.889v14.662h-14.662v-14.662H187.951z M173.289,166.889v-14.662
				h14.662v14.662H173.289z M188.951,167.889h14.662v14.662h-14.662V167.889z M188.951,166.889v-14.662h14.662v14.662H188.951z
				 M204.612,152.227h14.662v14.662h-14.662V152.227z M204.612,151.227v-14.662h14.662v14.662H204.612z M203.612,151.227h-14.662
				v-14.662h14.662V151.227z M187.951,151.227h-14.662v-14.662h14.662V151.227z M172.289,151.227h-14.662v-14.662h14.662V151.227z
				 M172.289,152.227v14.662h-14.662v-14.662H172.289z M156.627,166.889h-14.662v-14.662h14.662V166.889z M156.627,167.889v14.662
				h-14.662v-14.662H156.627z M157.627,167.889h14.662v14.662h-14.662V167.889z M172.289,183.55v14.662h-14.662V183.55H172.289z
				 M173.289,183.55h14.662v14.662h-14.662V183.55z M188.951,183.55h14.662v14.662h-14.662V183.55z M204.612,183.55h14.662v14.662
				h-14.662V183.55z M204.612,182.55v-14.662h14.662v14.662H204.612z M220.274,167.889h14.662v14.662h-14.662V167.889z
				 M220.274,166.889v-14.662h14.662v14.662H220.274z M147.117,136.565h9.51v14.662h-14.662v-9.51
				C141.965,138.876,144.276,136.565,147.117,136.565z M141.965,193.06v-9.51h14.662v14.662h-9.51
				C144.276,198.212,141.965,195.901,141.965,193.06z M229.783,198.212h-9.51V183.55h14.662v9.51
				C234.935,195.901,232.624,198.212,229.783,198.212z"/>
			
				<linearGradient id="XMLID_00000152959934233968325700000003943390963568384178_" gradientUnits="userSpaceOnUse" x1="249.1399" y1="114.0148" x2="163.895" y2="191.8849">
				<stop  offset="0" style="stop-color:#DD5954"/>
				<stop  offset="1" style="stop-color:#E0483D"/>
			</linearGradient>
			<path id="XMLID_288_" style="fill:url(#XMLID_00000152959934233968325700000003943390963568384178_);" d="M253.726,123.278
				l-11.357,2.611c-0.598,0.138-0.824,0.871-0.405,1.321l1.68,1.805l-41.573,38.843l-17.278-16.176
				c-0.751-0.704-1.926-0.684-2.654,0.044l-37.632,37.633c-0.319,0.319-0.319,0.835,0,1.154l3.868,3.868
				c0.319,0.319,0.835,0.319,1.154,0l34.079-34.078l17.156,16.061c0.733,0.686,1.873,0.687,2.607,0.001l45.114-42.151l1.42,1.525
				c0.418,0.449,1.166,0.277,1.346-0.31l3.417-11.141C254.848,123.702,254.325,123.141,253.726,123.278z"/>
		</g>
		<g id="XMLID_74_">
			<g id="XMLID_286_">
				
					<linearGradient id="XMLID_00000005235901896831414600000009994189320519184782_" gradientUnits="userSpaceOnUse" x1="357.7089" y1="320.8885" x2="357.7089" y2="377.0591">
					<stop  offset="0" style="stop-color:#71D2F9"/>
					<stop  offset="1" style="stop-color:#51B9F8"/>
				</linearGradient>
				
					<circle id="XMLID_202_" style="fill:url(#XMLID_00000005235901896831414600000009994189320519184782_);" cx="357.709" cy="347.799" r="34.182"/>
				
					<ellipse id="XMLID_279_" transform="matrix(0.9127 -0.4087 0.4087 0.9127 -110.9088 176.576)" style="fill:#FFFFFF;" cx="357.709" cy="347.799" rx="28.682" ry="28.682"/>
			</g>
			<g id="XMLID_324_">
				
					<linearGradient id="XMLID_00000116950830183611851950000010489466406294000024_" gradientUnits="userSpaceOnUse" x1="357.7089" y1="320.8886" x2="357.7089" y2="377.0588">
					<stop  offset="0" style="stop-color:#71D2F9"/>
					<stop  offset="1" style="stop-color:#51B9F8"/>
				</linearGradient>
				<path id="XMLID_290_" style="fill:url(#XMLID_00000116950830183611851950000010489466406294000024_);" d="M360.961,328.713
					c0,1.796-1.456,3.252-3.252,3.252c-1.796,0-3.252-1.456-3.252-3.252c0-1.796,1.456-3.252,3.252-3.252
					C359.505,325.461,360.961,326.917,360.961,328.713z"/>
				
					<linearGradient id="XMLID_00000158715346323411844610000002281582223630207634_" gradientUnits="userSpaceOnUse" x1="357.7089" y1="320.8886" x2="357.7089" y2="377.059">
					<stop  offset="0" style="stop-color:#71D2F9"/>
					<stop  offset="1" style="stop-color:#51B9F8"/>
				</linearGradient>
				<path id="XMLID_390_" style="fill:url(#XMLID_00000158715346323411844610000002281582223630207634_);" d="M363.389,334.837
					c-0.346-0.363-0.874-0.692-1.471-0.98c-2.645-1.278-5.772-1.278-8.417,0c-0.597,0.289-1.125,0.617-1.471,0.98
					c-1.384,1.453-1.522,4.843-1.522,4.843h7.202h7.202C364.911,339.68,364.772,336.29,363.389,334.837z"/>
			</g>
			<g id="XMLID_340_">
				
					<linearGradient id="XMLID_00000127758124949267413980000013798057876882228905_" gradientUnits="userSpaceOnUse" x1="341.2089" y1="320.8885" x2="341.2089" y2="377.0591">
					<stop  offset="0" style="stop-color:#71D2F9"/>
					<stop  offset="1" style="stop-color:#51B9F8"/>
				</linearGradient>
				<path id="XMLID_401_" style="fill:url(#XMLID_00000127758124949267413980000013798057876882228905_);" d="M343.888,352.984
					c0,1.479-1.199,2.679-2.679,2.679s-2.679-1.199-2.679-2.679c0-1.479,1.199-2.679,2.679-2.679S343.888,351.505,343.888,352.984z"
					/>
				
					<linearGradient id="XMLID_00000004513210164373106310000007878174352002231685_" gradientUnits="userSpaceOnUse" x1="341.2089" y1="320.8889" x2="341.2089" y2="377.0587">
					<stop  offset="0" style="stop-color:#71D2F9"/>
					<stop  offset="1" style="stop-color:#51B9F8"/>
				</linearGradient>
				<path id="XMLID_397_" style="fill:url(#XMLID_00000004513210164373106310000007878174352002231685_);" d="M345.888,358.028
					c-0.285-0.299-0.72-0.57-1.212-0.808c-2.179-1.053-4.755-1.053-6.934,0c-0.492,0.238-0.927,0.509-1.212,0.808
					c-1.14,1.197-1.254,3.99-1.254,3.99h5.933h5.933C347.142,362.018,347.028,359.225,345.888,358.028z"/>
			</g>
			<g id="XMLID_402_">
				
					<linearGradient id="XMLID_00000054947118078784314810000002526221468424956820_" gradientUnits="userSpaceOnUse" x1="357.7089" y1="320.8885" x2="357.7089" y2="377.0591">
					<stop  offset="0" style="stop-color:#71D2F9"/>
					<stop  offset="1" style="stop-color:#51B9F8"/>
				</linearGradient>
				<path id="XMLID_405_" style="fill:url(#XMLID_00000054947118078784314810000002526221468424956820_);" d="M360.388,352.984
					c0,1.479-1.199,2.679-2.679,2.679s-2.679-1.199-2.679-2.679c0-1.479,1.199-2.679,2.679-2.679S360.388,351.505,360.388,352.984z"
					/>
				
					<linearGradient id="XMLID_00000181782239784058537950000014355623356999670463_" gradientUnits="userSpaceOnUse" x1="357.7089" y1="320.8889" x2="357.7089" y2="377.0587">
					<stop  offset="0" style="stop-color:#71D2F9"/>
					<stop  offset="1" style="stop-color:#51B9F8"/>
				</linearGradient>
				<path id="XMLID_404_" style="fill:url(#XMLID_00000181782239784058537950000014355623356999670463_);" d="M362.388,358.028
					c-0.285-0.299-0.72-0.57-1.212-0.808c-2.179-1.053-4.755-1.053-6.934,0c-0.492,0.238-0.927,0.509-1.212,0.808
					c-1.14,1.197-1.254,3.99-1.254,3.99h5.933h5.933C363.642,362.018,363.528,359.225,362.388,358.028z"/>
			</g>
			<g id="XMLID_406_">
				
					<linearGradient id="XMLID_00000065770816764202776820000012754383805831020169_" gradientUnits="userSpaceOnUse" x1="374.2089" y1="320.8885" x2="374.2089" y2="377.0591">
					<stop  offset="0" style="stop-color:#71D2F9"/>
					<stop  offset="1" style="stop-color:#51B9F8"/>
				</linearGradient>
				<path id="XMLID_409_" style="fill:url(#XMLID_00000065770816764202776820000012754383805831020169_);" d="M376.888,352.984
					c0,1.479-1.199,2.679-2.679,2.679s-2.679-1.199-2.679-2.679c0-1.479,1.199-2.679,2.679-2.679S376.888,351.505,376.888,352.984z"
					/>
				
					<linearGradient id="XMLID_00000142167399084421368810000010480290072096395432_" gradientUnits="userSpaceOnUse" x1="374.2089" y1="320.8889" x2="374.2089" y2="377.0587">
					<stop  offset="0" style="stop-color:#71D2F9"/>
					<stop  offset="1" style="stop-color:#51B9F8"/>
				</linearGradient>
				<path id="XMLID_408_" style="fill:url(#XMLID_00000142167399084421368810000010480290072096395432_);" d="M378.888,358.028
					c-0.285-0.299-0.72-0.57-1.212-0.808c-2.179-1.053-4.755-1.053-6.934,0c-0.492,0.238-0.927,0.509-1.212,0.808
					c-1.14,1.197-1.254,3.99-1.254,3.99h5.933h5.933C380.142,362.018,380.028,359.225,378.888,358.028z"/>
			</g>
			
				<linearGradient id="XMLID_00000023992388526334969940000004313247078651765891_" gradientUnits="userSpaceOnUse" x1="357.709" y1="340.1385" x2="357.709" y2="348.732">
				<stop  offset="0" style="stop-color:#CBE1F2"/>
				<stop  offset="1" style="stop-color:#AED2ED"/>
			</linearGradient>
			<path id="XMLID_558_" style="fill:url(#XMLID_00000023992388526334969940000004313247078651765891_);" d="M371.743,343.888
				h-13.535v-2.666c0-0.276-0.224-0.5-0.5-0.5c-0.276,0-0.5,0.224-0.5,0.5v2.666h-13.534c-1.636,0-2.966,1.33-2.966,2.966v1.784
				c0,0.276,0.224,0.5,0.5,0.5c0.276,0,0.5-0.224,0.5-0.5v-1.784c0-1.084,0.882-1.966,1.966-1.966h13.534v3.75
				c0,0.276,0.224,0.5,0.5,0.5c0.276,0,0.5-0.224,0.5-0.5v-3.75h13.535c1.084,0,1.966,0.882,1.966,1.966v1.784
				c0,0.276,0.224,0.5,0.5,0.5s0.5-0.224,0.5-0.5v-1.784C374.709,345.218,373.379,343.888,371.743,343.888z"/>
		</g>
		<g id="XMLID_630_">
			<path id="XMLID_584_" style="fill:#FFA49A;" d="M571.954,428.836l-3.375-7.031l8-2.75l1.877,5.912c0,0,0.748,2.025-0.627,3.244
				C576.454,429.43,571.954,428.836,571.954,428.836z"/>
			<path id="XMLID_729_" style="fill:#283770;" d="M571.954,428.836c0,0,5.784-0.112,6.502-3.869c0,0,2.725,1.446,3.972,4.412
				c0,0-1.662,3.257-2.434,5.934c-0.772,2.678-4.588,5.196-8.328,5.249h-5.581c0,0-2.929-0.62,2.968-4.38
				C571.65,434.528,571.954,428.836,571.954,428.836z"/>
			<path id="XMLID_588_" style="fill:#182670;" d="M526.762,265.174l19.383,23.227c0,0,13.313-8.117-8.434-29.52
				c-1.388-1.366-3.177-3.002-4.727-4.841c-0.407-0.482-0.739-1.011-1.023-1.561h-4.275
				C527.507,254.377,524.749,259.557,526.762,265.174z"/>
			<path id="XMLID_557_" style="fill:#FFA49A;" d="M526.297,428.461l0.579,5.111c0,0,2.859,1.702,5.109,1.358
				c2.25-0.344,2.505-1.358,2.505-1.358l0.213-6.079L526.297,428.461z"/>
			<path id="XMLID_728_" style="fill:#283770;" d="M534.49,433.572c0,0-1.294,0.823-4.515,0.576
				c-0.513-0.039-2.35-0.354-3.099-0.576c0,0-12.706,4.796-12.769,5.969c-0.063,1.174,1.554,1.015,1.554,1.015l19.21,0.007
				C534.871,440.563,537.252,437.499,534.49,433.572z"/>
			
				<linearGradient id="XMLID_00000103965685582334420830000017548011685043609484_" gradientUnits="userSpaceOnUse" x1="554.5102" y1="516.5748" x2="539.8961" y2="298.7796">
				<stop  offset="0" style="stop-color:#283770"/>
				<stop  offset="1" style="stop-color:#141A5A"/>
			</linearGradient>
			<path id="XMLID_596_" style="fill:url(#XMLID_00000103965685582334420830000017548011685043609484_);" d="M577.467,420.305
				c-3.03,2.39-8.41,3.81-8.41,3.81c-5.63-11.41-21.78-44.24-23.76-49.71c-1.95-4.06-5.82-10.55-9.88-20.87
				c-0.12,2.11-0.25,4.42-0.42,6.81c0,0.01,0,0.01,0,0.02c-0.48,6.72-1.23,14.12-2.42,19.9c1.16,2.85,2.89,8.99,2.97,15.73
				c0.1,7.74-0.43,16.55-0.53,24.18c-0.03,2.09-0.09,6.73,0,8.32c-3.52,0.6-7.49,0.62-9.12,0.5c-1.72-11.99-5.91-41.18-6.96-49.84
				c-1.83-8.62-4.26-28.48-5.93-43.88c-0.71-6.5-0.57-12.32-0.88-15.72l20.3-9.18c1.73,2.34,3.11,4.5,4.22,6.51l6.67-0.89
				c0,0,0.9,1.53,2.8,4.2c1.69,2.35,3.32,4.93,4.68,9.73c0.44,1.55,2.54,10.96,3.06,13.62c2.17,11.22,3.72,22.76,5.03,27.08
				c0.92,0.72,3.86,3.38,6,9.19c1.89,5.18,5.92,20.24,9.4,31.43C575.377,414.735,576.567,417.985,577.467,420.305z"/>
			
				<linearGradient id="XMLID_00000098212971029816130930000017432179684795084452_" gradientUnits="userSpaceOnUse" x1="533.4474" y1="376.6731" x2="530.7894" y2="337.0611">
				<stop  offset="0" style="stop-color:#283770"/>
				<stop  offset="1" style="stop-color:#141A5A"/>
			</linearGradient>
			<path id="XMLID_594_" style="opacity:0.5;fill:url(#XMLID_00000098212971029816130930000017432179684795084452_);" d="
				M535.417,353.535c-0.12,2.11-0.25,4.42-0.42,6.81c-1.2-5.08-7.58-21.04-7.58-21.04c0.88,0.25,2.94,0.37,2.94,0.37
				C531.107,342.115,535.417,353.535,535.417,353.535z"/>
			<path id="XMLID_721_" style="fill:#182670;" d="M511.688,240.739c0,0-2.567,4.217,0.441,8.568c0,0,1.45,2.29,2.405,6.311
				c-3.866,9.532-1.297,17.738-1.297,17.738s6.123-5.222,8.385-6.278c2.262-1.055,0.453-13.924,0.453-13.924
				s-1.558-7.188-1.81-7.892c-0.251-0.704-4.775-6.082-4.775-6.082L511.688,240.739z"/>
			<path id="XMLID_134_" style="fill:#FFA49A;" d="M503.247,276.922c0,0-3.789-7.797-4.096-8.863c0,0-0.236-1.755-0.893-2.664
				s-2.474-1.439-3.03-1.843c-0.555-0.404-1.356-0.962-2.184-1.654c-0.393-0.328-0.808,0.227-0.606,1.161
				c0.202,0.934,1.275,1.831,1.275,1.831s-1.06-0.203-2.575-0.96c-1.515-0.757-2.252-2.102-3.211-2.279
				c-0.96-0.177-0.856,0.397-0.421,0.986c0.371,0.501,1.271,1.502,1.881,2.13l-0.975-0.483c0,0-1.515-1.515-2.222-1.843
				c-0.707-0.328-1.237-0.101-1.161,0.278c0.076,0.379,1.717,2.399,2.045,2.803c0.126,0.155,0.638,0.49,1.239,0.855
				c0.399,0.514,0.785,0.991,0.927,1.165c0.328,0.404,4.542,2.591,4.895,2.793c0.255,0.145,3.555,9.125,3.555,9.125L503.247,276.922
				z"/>
			
				<linearGradient id="XMLID_00000004540520151444225180000003150154640220961178_" gradientUnits="userSpaceOnUse" x1="510.6473" y1="266.8604" x2="510.6473" y2="321.0973">
				<stop  offset="0" style="stop-color:#49A5F7"/>
				<stop  offset="1" style="stop-color:#1C6CEB"/>
			</linearGradient>
			<path id="XMLID_109_" style="fill:url(#XMLID_00000004540520151444225180000003150154640220961178_);" d="M513.757,265.405
				c-2,1.27-4.37,4.68-6.44,10.45c0,0.01,0,0.03-0.01,0.04c-1.57,4.29-2.83,8.14-3.81,11.35l3.84,13.72c0.33,0,0.69-0.07,1.05-0.23
				c0.75-0.33,1.56-1.04,2.41-2.34c1.26-1.91,2.61-4.51,3.79-6.95c1.81-3.74,3.21-7.11,3.21-7.11L513.757,265.405z"/>
			
				<linearGradient id="XMLID_00000014621878673706382370000001732960877716297097_" gradientUnits="userSpaceOnUse" x1="503.2223" y1="260.25" x2="503.2223" y2="314.4867" gradientTransform="matrix(0.9308 0.3656 -0.3656 0.9308 137.5803 -160.5229)">
				<stop  offset="0" style="stop-color:#49A5F7"/>
				<stop  offset="1" style="stop-color:#1C6CEB"/>
			</linearGradient>
			<path id="XMLID_167_" style="fill:url(#XMLID_00000014621878673706382370000001732960877716297097_);" d="M502.139,274.513
				c0,0-2.528,1.102-3.637,1.601c-2.42,1.101-2.611,1.252-2.611,1.252c2.149,6.098,6.374,21.607,11.447,23.599l1.442-14.174
				C506.395,282.277,502.139,274.513,502.139,274.513z"/>
			
				<linearGradient id="XMLID_00000107583752530743444580000012988972297225947835_" gradientUnits="userSpaceOnUse" x1="510.4995" y1="279.5244" x2="510.4995" y2="300.2749">
				<stop  offset="0" style="stop-color:#49A5F7"/>
				<stop  offset="1" style="stop-color:#1C6CEB"/>
			</linearGradient>
			<path id="XMLID_605_" style="opacity:0.5;fill:url(#XMLID_00000107583752530743444580000012988972297225947835_);" d="
				M514.677,288.055l-0.09,3.39c-1.18,2.44-2.53,5.04-3.79,6.95c-0.85,1.3-1.66,2.01-2.41,2.34v-0.01
				c-0.09-2.27-2.086-13.583-2.066-15.643c0.03-2.06,3.028-6.615,3.028-6.615L514.677,288.055z"/>
			
				<linearGradient id="XMLID_00000127036839403891626550000001971439820394677666_" gradientUnits="userSpaceOnUse" x1="526.1297" y1="266.3284" x2="526.1297" y2="320.809">
				<stop  offset="0" style="stop-color:#49A5F7"/>
				<stop  offset="1" style="stop-color:#1C6CEB"/>
			</linearGradient>
			<path id="XMLID_413_" style="fill:url(#XMLID_00000127036839403891626550000001971439820394677666_);" d="M512.485,266.555
				c0,0,0.301,3.668-1.818,8.917c-2.052,5.084-4.213,7.645-3.12,11.833c1.149,4.403,3.148,12.903,3.952,20.25
				c0.75,6.855,0.343,12.729,0.343,12.729s5.959,5.521,33.164-3.146c0,0-5.955-7.519-5.77-17.958
				c0.185-10.44,3.542-14.078,3.542-18.326c0-2.55,0.773-7.175-1.522-10.882c-1.528-2.468-3.817-3.693-8.771-5.729
				c-3.181-0.288-11.295-1.112-16.083-0.417C515.235,264.263,512.964,265.868,512.485,266.555z"/>
			
				<linearGradient id="XMLID_00000162313877282805957130000015693984150411218335_" gradientUnits="userSpaceOnUse" x1="536.924" y1="281.3839" x2="536.924" y2="301.9974">
				<stop  offset="0" style="stop-color:#49A5F7"/>
				<stop  offset="1" style="stop-color:#1C6CEB"/>
			</linearGradient>
			<polygon id="XMLID_587_" style="opacity:0.5;fill:url(#XMLID_00000162313877282805957130000015693984150411218335_);" points="
				534.634,280.953 536.3,296.972 539.214,295.555 			"/>
			<path id="XMLID_183_" style="fill:#FFA49A;" d="M532.481,264.245c-1.02,2.64-8.99,6.07-13.31,5.12
				c-3.77-0.82-3.67-4.74-2.77-5.54c0.93-0.51,2.03-1.09,2.57-1.48c0.1-0.31,0.18-0.78,0.25-1.35c0.16-1.43,0.24-3.47,0.27-5.07
				c0.03-1.43,0.03-2.52,0.03-2.52l3.07-5.18c0,0,5.97-3.03,5.43,0c-0.69,3.92-0.24,13.63,0.17,13.94
				C529.451,263.115,532.481,264.245,532.481,264.245z"/>
			<path id="XMLID_112_" style="fill:#FF8189;" d="M525.431,254.745c0,0-1.59,4.64-6.21,6.25c0.16-1.43,0.24-3.47,0.27-5.07
				L525.431,254.745z"/>
			<path id="XMLID_682_" style="fill:#FFA49A;" d="M526.928,252.858c-0.297,0.461-0.635,0.901-1.004,1.332c0,0,0,0,0,0.01
				c-2.715,3.166-6.864,5.378-8.934,4.887c-3.002-0.727-4.446-3.524-5.071-6.843c-1.147-6.004,0.42-13.677,0.42-13.677
				c2.407-8.206,17.303-2.981,17.857,2.93C530.759,247.418,526.928,252.858,526.928,252.858z"/>
			<path id="XMLID_581_" style="fill:#182670;" d="M531.646,245.743c1.19-2.753,1.392-6.247-2.916-7.811
				c0,0-1.471-5.243-7.854-4.742c-9.112,0.716-14.353,7.042-10.022,13.242c0,0,12.381,0.091,13.021-4.693
				c0,0-0.38,4.336,2.747,6.363c0,0,1.016,2.376,1.063,4.376h4.275C530.886,250.4,530.7,247.931,531.646,245.743z"/>
			
				<rect id="XMLID_662_" x="513.04" y="281.829" transform="matrix(0.882 -0.4713 0.4713 0.882 -78.9918 282.8317)" style="fill:#1A246E;" width="24.278" height="34.59"/>
			
				<rect id="XMLID_661_" x="513.04" y="281.829" transform="matrix(0.9212 -0.3892 0.3892 0.9212 -75.0106 227.9881)" style="fill:#2F397F;" width="24.278" height="34.59"/>
			<path id="XMLID_582_" style="fill:#EF9795;" d="M527.702,296.968l-7.86,2.269c-0.59,0.109-1.651,0.274-2.275,0.178
				c-0.893-0.137-2.261-0.773-3.11-0.948c-0.542-0.111-2.025,0.622-3.136,1.181c-0.629,0.316-1.187,0.504-1.268,0.631
				c-0.223,0.352,0.385,0.89,0.932,0.837c0.378-0.037,1.178-0.178,1.925-0.355l0.164,0.054c-0.869,0.354-2.051,0.882-2.205,1.196
				c0,0-0.225,0.335-0.166,0.752c0.045,0.318,0.288,0.625,0.838,0.704c-0.047,0.135-0.086,0.316-0.057,0.518
				c0.043,0.307,0.273,0.603,0.784,0.695c-0.042,0.131-0.075,0.296-0.048,0.483c0.045,0.321,0.295,0.628,0.856,0.704
				c0,0.002,0,0.003,0,0.005c0.059,0.417,0.553,0.999,1.549,0.883c0.663-0.078,1.631-0.517,2.225-0.813
				c0.045-0.022,0.091-0.031,0.136-0.056c0.759-0.426,1.755-0.965,2.289-1.253l10.094-1.332L527.702,296.968z"/>
			
				<linearGradient id="XMLID_00000158751841059562899570000012223256441889728702_" gradientUnits="userSpaceOnUse" x1="536.1782" y1="266.1462" x2="536.1782" y2="315.9923">
				<stop  offset="0" style="stop-color:#49A5F7"/>
				<stop  offset="1" style="stop-color:#1C6CEB"/>
			</linearGradient>
			<path id="XMLID_647_" style="fill:url(#XMLID_00000158751841059562899570000012223256441889728702_);" d="M546.256,301.701
				c-1.259,0.954-4.029,1.391-7.125,1.604c-3.391,0.243-9.644,0.573-12.623,0.531c-1.167-2.646-1.572-4.594-1.781-6.219
				c2.587-0.813,12.902-3.23,12.902-3.23s-3.034-13.625-3.785-16.974c-1.238-5.582,0.284-9.816,0.679-12.311
				c2.897,1.12,5.9,2.742,8.275,6.39C546.297,276.868,549.565,299.214,546.256,301.701z"/>
			<path id="XMLID_646_" style="fill:#D65C61;" d="M555.585,293.466"/>
			<path id="XMLID_634_" style="fill:#FFA49A;" d="M525.433,247.468c0,0,0.63-2.743,2.59-1.648c1.355,0.757,0.753,5.314-1.333,5.49"
				/>
		</g>
		<g id="XMLID_105_">
			<path id="XMLID_450_" style="fill:#F3B2AD;" d="M410.021,435.214l1.363-5.671c-2.336,0.396-6.129-0.732-7.656-0.935l0.153,6.606
				C403.882,435.214,406.752,436.987,410.021,435.214z"/>
			<g id="XMLID_512_">
				<path id="XMLID_515_" style="fill:#203647;" d="M443.766,322.133c-0.003-0.019-0.005-0.032-0.005-0.032
					S443.764,322.122,443.766,322.133z"/>
				<path id="XMLID_514_" style="fill:#F3B2AD;" d="M439.874,435.214l0.258-4.307c-2.336,0.396-5.024,0.16-6.55-0.043l0.153,4.35
					C433.734,435.214,436.604,436.987,439.874,435.214z"/>
				
					<linearGradient id="XMLID_00000124843003654464156570000012300311250997160322_" gradientUnits="userSpaceOnUse" x1="416.9381" y1="-16211.7979" x2="416.9381" y2="-16315.0928" gradientTransform="matrix(-1 0 0 -1 842.1822 -15881.8896)">
					<stop  offset="0" style="stop-color:#283770"/>
					<stop  offset="1" style="stop-color:#141A5A"/>
				</linearGradient>
				<path id="XMLID_442_" style="fill:url(#XMLID_00000124843003654464156570000012300311250997160322_);" d="M403.189,429.701
					c1.6,0.917,6.262,1.629,8.515,0.897c0,0,10.017-45.414,11.295-51.003c1.678-7.296,4.594-16.104,6.33-24.063
					c-0.02,4.126,0.341,9.49,0.741,14.055c0,0.01,0,0.01,0,0.02c0.458,5.277,0.956,9.481,0.956,9.481
					c-0.351,3.336-1.044,19.498,0.293,29.769c0.868,6.613,0.917,22.005,0.917,22.005c1.785,0.41,5.296,0.751,8.798,0.107
					c0,0,5.492-50.74,5.735-54.69c1.005-16.611,0.283-53.413,0.205-54.134c0,0.263-1.912,1.922-7.774,1.59
					c-8.076-0.449-23.315-1.601-23.315-1.601c-4.471,2.515-5.303,15.438-5.144,21.697c0.185,2.946-1.34,23.016-2.306,34.526
					c-2.946,6.928-2.975,18.731-3.555,27.392C403.976,419.258,403.189,429.701,403.189,429.701z"/>
			</g>
			<path id="XMLID_451_" style="fill:#283770;" d="M444.007,434.886c-0.001,0-2.976-2.396-3.971-2.396
				c-0.774,0-1.148,0.477-1.863,0.74c-0.493,0.182-0.928,0.213-1.05,0.219c-2.55,0.03-3.48-0.709-3.48-0.709
				c-2.394,4.36-0.955,7.879-0.955,7.879h19.43C452.667,436.002,446.437,435.67,444.007,434.886z"/>
			<path id="XMLID_449_" style="fill:#283770;" d="M412.443,433.874c0,0-0.755-0.851-2.218-1.384
				c-1.266-0.461-2.796-0.764-5.384,0.243c-0.691,0.02-1.026-0.056-1.026-0.056c-0.2,0.652-0.569,1.172-1.006,1.631
				c-3.719,3.902-1.524,6.311-1.524,6.311h11.864C414.837,438.586,415.166,435.014,412.443,433.874z"/>
			
				<linearGradient id="XMLID_00000057119192443844100030000008739279847589067952_" gradientUnits="userSpaceOnUse" x1="408.8924" y1="-16240.626" x2="409.4259" y2="-16224.252" gradientTransform="matrix(-1 0 0 -1 842.1822 -15881.8896)">
				<stop  offset="0" style="stop-color:#283770"/>
				<stop  offset="1" style="stop-color:#141A5A"/>
			</linearGradient>
			<path id="XMLID_423_" style="opacity:0.5;fill:url(#XMLID_00000057119192443844100030000008739279847589067952_);" d="
				M429.327,355.532c-0.01,1.58,0.039,3.336,0.127,5.16l4.721-16.172c1.229-1.941,2.321-3.17,2.458-3.326l-4.379,1.707
				C431.581,346.49,429.327,355.532,429.327,355.532z"/>
			<g id="XMLID_648_">
				<g id="XMLID_48_">
					<path id="XMLID_49_" style="fill:#FFA49A;" d="M450.015,290.956c2.454-0.932,5.662-2.322,9.922-4.908
						c0.625,1.491,2.592,6.275,3.185,7.59c6.044-6.503,13.555-14.542,13.555-14.542s5.039,2.917,4.216,3.721
						c-0.823,0.804-15.456,24.382-19.56,24.384C457.879,307.203,454.514,300.912,450.015,290.956z"/>
				</g>
			</g>
			
				<linearGradient id="XMLID_00000030452093376866137720000013208156052626575521_" gradientUnits="userSpaceOnUse" x1="452.7639" y1="262.0562" x2="452.7639" y2="323.5189">
				<stop  offset="0" style="stop-color:#49A5F7"/>
				<stop  offset="1" style="stop-color:#1C6CEB"/>
			</linearGradient>
			<path id="XMLID_280_" style="fill:url(#XMLID_00000030452093376866137720000013208156052626575521_);" d="M460.829,287.095
				c-3.01,2.13-6.54,3.68-9.09,4.63c-0.82,0.31-1.53,0.56-2.1,0.74c-0.34-0.62-0.68-1.25-1.02-1.89c-1.19-2.22-2.77-2.27-3.5-2.15
				c-0.26,0.04-0.42,0.11-0.42,0.11l6.37-19.61c0,0,2.6,2.55,5.88,9.63C457.979,280.785,459.509,283.945,460.829,287.095z"/>
			
				<linearGradient id="XMLID_00000101090442465144053500000007656138817663937953_" gradientUnits="userSpaceOnUse" x1="445.1189" y1="288.4702" x2="451.7389" y2="288.4702">
				<stop  offset="0" style="stop-color:#49A5F7"/>
				<stop  offset="1" style="stop-color:#1C6CEB"/>
			</linearGradient>
			<path id="XMLID_275_" style="opacity:0.5;fill:url(#XMLID_00000101090442465144053500000007656138817663937953_);" d="
				M451.739,291.725c-0.82,0.31-1.53,0.56-2.1,0.74c-0.34-0.62-0.68-1.25-1.02-1.89c-1.19-2.22-2.77-2.27-3.5-2.15l0.59-2.2
				l4.68-1.75L451.739,291.725z"/>
			
				<linearGradient id="XMLID_00000022556407491943483350000004026062711574675375_" gradientUnits="userSpaceOnUse" x1="409.2493" y1="262.0596" x2="409.2493" y2="323.5172" gradientTransform="matrix(-1 0 0 1 842.1822 0)">
				<stop  offset="0" style="stop-color:#49A5F7"/>
				<stop  offset="1" style="stop-color:#1C6CEB"/>
			</linearGradient>
			<path id="XMLID_645_" style="fill:url(#XMLID_00000022556407491943483350000004026062711574675375_);" d="M451.072,268.928
				c-1.626-1.748-6.917-4.652-9.972-5.414c-1.274-0.055-1.267-0.223-3.069-0.166c-2.426,0.077-5.299,0.107-9.434,0.688
				c-4.641,0.652-12.132,7.243-12.964,9.063c-2.276,4.979,0.611,21.647-0.386,37.473c-2.26,7.877-1.557,12.761-1.362,12.987
				c1.569,1.818,17.241,1.94,22.279,1.94c4.484,0,10.506-1.285,10.893-2.722c0.24-0.891,0.549-6.584,0.512-15.574
				c0.953-11.419,3.099-25.591,3.785-27.437C452.249,277.361,452.898,270.891,451.072,268.928z"/>
			
				<linearGradient id="XMLID_00000131364756755330189790000010333833012208880020_" gradientUnits="userSpaceOnUse" x1="414.1094" y1="285.7732" x2="421.1387" y2="299.605">
				<stop  offset="0" style="stop-color:#49A5F7"/>
				<stop  offset="1" style="stop-color:#1C6CEB"/>
			</linearGradient>
			<polygon id="XMLID_108_" style="opacity:0.5;fill:url(#XMLID_00000131364756755330189790000010333833012208880020_);" points="
				422.164,286.228 420.103,298.18 413.89,300.735 			"/>
			<path id="XMLID_643_" style="fill:#FFA49A;" d="M428.596,264.037c0,0,4.504,5.526,10.193,4.249
				c2.589-0.592,2.31-4.771,2.31-4.771s-1.149-0.116-1.637-0.906c-0.104-0.162-0.279-0.778-0.464-1.532
				c-0.348-1.498-0.754-3.541-0.754-3.541l-1.985-0.743l-6.188-2.322c0,0-0.012,5.7-0.615,8.463
				C429.27,263.782,428.596,264.037,428.596,264.037z"/>
			<path id="XMLID_642_" style="opacity:0.32;fill:#D76B66;" d="M433.47,256.924c0,0,0.387,3.531,5.528,4.152
				c-0.348-1.498-0.754-3.541-0.754-3.541l-1.985-0.743L433.47,256.924z"/>
			<path id="XMLID_641_" style="fill:#FFA49A;" d="M436.295,240.085c0.993,0.271,4.58-1.509,5.302-0.426
				c0.722,1.083,2.306,8.261,2.697,9.743c0.248,0.939,1.322,6.93-0.74,8.812c-2.178,1.987-8.286,0.209-8.993-0.021
				c-1.839-0.597-5.303-2.522-5.776-4.239l-0.252-10.439L436.295,240.085z"/>
			<path id="XMLID_640_" style="fill:#FFA49A;" d="M443.419,245.786c0,0,2.004,3.552,2.264,4.142c0.26,0.59-1.935,1.44-1.935,1.44"
				/>
			<g id="XMLID_637_">
				<path id="XMLID_31_" style="fill:#09085F;" d="M444.24,236.947c-0.253-0.503-0.714-0.865-1.056-1.312
					c-0.577-0.755-0.854-1.796-1.682-2.262c-0.906-0.51-2.021-0.099-3.048,0.064c-1.158,0.183-2.368,0.022-3.438-0.459
					c-0.37-0.167-0.725-0.37-1.108-0.507c-1.01-0.359-2.19-0.198-3.067,0.419c-0.273,0.192-0.517,0.425-0.798,0.606
					c-0.918,0.594-2.087,0.569-3.18,0.613c-1.093,0.044-2.302,0.239-2.982,1.095c-0.935,1.176-0.437,3.044-1.339,4.246
					c-0.647,0.863-1.923,1.243-2.232,2.277c-0.189,0.633,0.061,1.304,0.126,1.962c0.164,1.667-0.844,3.501,0.022,4.934
					c0.445,0.737,1.277,1.139,1.992,1.635c0.354,0.479,0.751,0.951,1.184,1.415c0.161,0.467,0.222,0.974,0.45,1.414
					c0.52,0.998,1.725,1.328,2.868,1.496c0.981,0.717,2.018,1.38,3.072,1.963l0.709-1.007c0,0-2.093-3.129-0.872-5.161
					c1.358-1.762,2.888,0.245,3.793,1.088c0.127,0.118,0.335,0.031,0.34-0.143c0.021-0.869-0.235-1.402,0.154-2.713
					c0.327-0.83,0.949-1.406,1.063-1.975c0.058-0.288-0.009-0.585-0.025-0.879c-0.016-0.294,0.036-0.622,0.265-0.807
					c0.198-0.16,0.478-0.17,0.73-0.131c0.252,0.04,0.499,0.122,0.753,0.12c0.664-0.005,1.172-0.554,1.694-0.964
					c0.111-0.087,0.229-0.171,0.366-0.205c0.138-0.035,0.282-0.017,0.424-0.005c0.919,0.075,1.859-0.127,2.666-0.575
					c0.44-0.244,0.867-0.599,0.981-1.089c0.067-0.287,0.026-0.596,0.109-0.876c0.021-0.033,0.047-0.064,0.067-0.097
					c0.043-0.038,0.096-0.066,0.135-0.108c0.256-0.28,0.403-0.639,0.545-0.99C444.322,239.04,444.719,237.9,444.24,236.947z"/>
			</g>
			<g id="XMLID_68_">
				
					<linearGradient id="XMLID_00000098219031574008532860000013819389893739896194_" gradientUnits="userSpaceOnUse" x1="420.8513" y1="303.6572" x2="420.8513" y2="336.4836" gradientTransform="matrix(0.6055 0.7959 -0.7959 0.6055 415.5023 -209.5747)">
					<stop  offset="0" style="stop-color:#F7CF00"/>
					<stop  offset="1" style="stop-color:#FFA900"/>
				</linearGradient>
				
					<circle id="XMLID_77_" style="fill:url(#XMLID_00000098219031574008532860000013819389893739896194_);" cx="415.504" cy="319.244" r="17.428"/>
				<path id="XMLID_75_" style="fill:#E9C886;" d="M424.42,330.964c-6.473,4.924-15.712,3.669-20.636-2.803
					c-4.924-6.473-3.669-15.712,2.804-20.636c6.473-4.924,15.712-3.669,20.636,2.804C432.148,316.801,430.893,326.04,424.42,330.964
					z"/>
				
					<linearGradient id="XMLID_00000170975955511064502430000010577670543853735605_" gradientUnits="userSpaceOnUse" x1="405.1989" y1="-16217.7129" x2="434.0552" y2="-16188.8564" gradientTransform="matrix(0.6055 0.7959 0.7959 -0.6055 13055.8984 -9826.0586)">
					<stop  offset="0" style="stop-color:#FAE080"/>
					<stop  offset="1" style="stop-color:#F4BB58"/>
				</linearGradient>
				<path id="XMLID_73_" style="fill:url(#XMLID_00000170975955511064502430000010577670543853735605_);" d="M424.052,330.48
					c-6.206,4.721-15.063,3.518-19.784-2.688c-4.721-6.205-3.518-15.063,2.688-19.784s15.063-3.518,19.784,2.688
					C431.461,316.901,430.258,325.759,424.052,330.48z"/>
				<path id="XMLID_69_" style="fill:#E9C886;" d="M422.902,318.605l-0.033-0.272c-0.084-0.696-0.29-1.367-0.627-2.031
					c-0.225-0.443-0.098-0.984,0.297-1.284l0.243-0.185c0.457-0.347,0.545-0.999,0.198-1.456c-0.348-0.457-1-0.545-1.456-0.198
					l-0.451,0.343c-0.346,0.263-0.822,0.283-1.185,0.044c-1.531-1.008-3.303-1.006-4.713,0.067
					c-1.902,1.447-1.598,3.639-0.987,5.788c0.482,1.778,0.34,2.761-0.491,3.393c-0.907,0.69-2.143,0.38-3.006-0.754
					c-0.668-0.877-1.089-1.995-1.156-3.067l-0.026-0.414c0,0-0.163-1.261-1.448-0.863c-0.893,0.277-0.746,1.556-0.746,1.556
					l0.007,0.245c0.023,0.768,0.305,1.704,0.758,2.579c0.236,0.456,0.126,1.012-0.282,1.323l-0.304,0.231
					c-0.457,0.348-0.545,1-0.198,1.456l0.014,0.018c0.348,0.457,1,0.545,1.456,0.198l0.507-0.386
					c0.344-0.262,0.818-0.286,1.179-0.048c1.602,1.054,3.512,1.058,4.98-0.059c1.663-1.265,2.055-2.983,1.313-5.742
					c-0.57-2.159-0.515-2.95,0.244-3.527c0.609-0.464,1.657-0.563,2.604,0.683c0.878,1.154,1.014,2.19,1.073,2.633l0.049,0.376
					c0,0,0.156,1.307,1.441,0.909C423.049,319.885,422.902,318.605,422.902,318.605z"/>
			</g>
			<path id="XMLID_5_" style="fill:#FFA49A;" d="M425.81,334.237c-0.105-0.351-1.549-2.199-1.805-2.531
				c-0.67-0.872-2.995-2.821-2.995-2.821l-2.828-17.299c-0.815-3.462-2.342-7.62-2.342-7.62s2.186-7.995,3.809-15.275
				c-7.163-2.21-7.833-8.124-9.818-9.211c-1.232,5.547-4.471,14.405-4.961,21.224l-0.003-0.001
				c-0.162,1.058-0.165,2.132-0.066,3.216c0.072,1.705,0.35,3.165,0.898,4.271c1.408,4.461,3.66,9.247,6.075,13.561
				c3.36,5.999,4.801,8.185,4.801,8.185s0.34,4.239,0.832,5.151c0.491,0.912,1.09,2.151,1.739,2.168
				c0.649,0.018,0.817-0.265,0.817-0.265s0.468,0.136,0.906,0.048c0.439-0.088,0.636-0.594,0.636-0.594s0.479,0.203,0.847,0.028
				c0.368-0.175,0.403-0.544,0.403-0.544s0.987,0.039,1.266-0.621c0.137-0.325-0.389-1.413-0.389-1.413s0.406,0.764,1.3,0.904
				C425.828,334.939,425.915,334.588,425.81,334.237z"/>
			
				<linearGradient id="XMLID_00000123432179689700417730000005453828828476986775_" gradientUnits="userSpaceOnUse" x1="426.3567" y1="262.0596" x2="426.3567" y2="323.5172" gradientTransform="matrix(-1 0 0 1 842.1822 0)">
				<stop  offset="0" style="stop-color:#49A5F7"/>
				<stop  offset="1" style="stop-color:#1C6CEB"/>
			</linearGradient>
			<path id="XMLID_625_" style="fill:url(#XMLID_00000123432179689700417730000005453828828476986775_);" d="M423.744,280.484
				l1.717-15.388c0,0-8.139,3.055-12.877,8.424c-2.322,2.631-5.523,11.779-6.395,18.155c1.93,1.057,5.054,2.45,13.02,3.019
				C420.611,290.531,423.289,283.638,423.744,280.484z"/>
			<path id="XMLID_615_" style="fill:#FFA49A;" d="M433.097,250.914c0,0,0.33,0.395,0.44,1.849c0.11,1.453-0.086,3.481-0.928,3.713
				c-0.843,0.232-2.453-0.99-2.972-2.46c-0.452-1.281-0.886-3.547,0.75-4.269C432.023,249.025,433.097,250.914,433.097,250.914z"/>
			
				<linearGradient id="XMLID_00000081631444239309633880000010137805684632584865_" gradientUnits="userSpaceOnUse" x1="2019.6094" y1="-16208.46" x2="2019.6094" y2="-16130.4258" gradientTransform="matrix(1 0 0 -1 -1551.2836 -15881.8896)">
				<stop  offset="0" style="stop-color:#283770"/>
				<stop  offset="1" style="stop-color:#141A5A"/>
			</linearGradient>
			<path id="XMLID_91_" style="fill:url(#XMLID_00000081631444239309633880000010137805684632584865_);" d="M453.579,306.101h23.504
				c0.526,0,0.977-0.379,1.066-0.898l5.989-34.76c0.114-0.661-0.395-1.265-1.066-1.265h-23.504c-0.526,0-0.976,0.379-1.066,0.898
				l-5.989,34.76C452.4,305.497,452.909,306.101,453.579,306.101z"/>
			<path id="XMLID_29_" style="fill:#FFA49A;" d="M483.341,275.66c0,0,0.813,1.623,0.813,3.037c0,1.415-1.073,4.108-2.135,4.637
				c-1.063,0.529-3.215,0.468-3.707,0.314c-0.492-0.154-0.615-0.615-0.615-0.615s-1.307-0.086-1.538-0.215
				c-0.738-0.415-0.353-1.076-0.353-1.076s-1.003,0.017-1.371-0.229c-0.369-0.246-0.535-1.031,0.049-1.546
				c0.409-0.359,1.307-0.624,1.307-0.624s0.031-0.623,0.639-1.135c0.294-0.248,1.913-0.679,3.374-0.834
				C480.934,277.253,482.773,277.235,483.341,275.66z"/>
		</g>
		<g id="XMLID_107_">
			
				<linearGradient id="XMLID_00000111179917880837789240000000533382909024355737_" gradientUnits="userSpaceOnUse" x1="464.9705" y1="228.7596" x2="504.6055" y2="228.7596">
				<stop  offset="0" style="stop-color:#71D2F9"/>
				<stop  offset="1" style="stop-color:#51B9F8"/>
			</linearGradient>
			
				<circle id="XMLID_104_" style="fill:url(#XMLID_00000111179917880837789240000000533382909024355737_);" cx="484.788" cy="228.76" r="19.817"/>
			
				<linearGradient id="XMLID_00000177476350636839190330000012894099697169811339_" gradientUnits="userSpaceOnUse" x1="479.4852" y1="192.7622" x2="500.1519" y2="233.4291">
				<stop  offset="0" style="stop-color:#49A5F7"/>
				<stop  offset="1" style="stop-color:#1C6CEB"/>
			</linearGradient>
			<path id="XMLID_254_" style="fill:url(#XMLID_00000177476350636839190330000012894099697169811339_);" d="M507.456,223.981
				l-22.668,4.779l-5.632-22.458c1.799-0.456,3.692-0.689,5.632-0.689C495.935,205.613,505.248,213.488,507.456,223.981z"/>
		</g>
		<g id="XMLID_2_">
			<g id="XMLID_110_">
				<path id="XMLID_207_" style="fill:#FFFFFF;" d="M126.656,279.709h-18.706c-2.734,0-4.951-2.216-4.951-4.95v-18.706
					c0-2.734,2.217-4.951,4.951-4.951h18.706c2.734,0,4.95,2.216,4.95,4.951v18.706C131.606,277.492,129.39,279.709,126.656,279.709
					z"/>
				
					<linearGradient id="XMLID_00000005249704391626549070000008066916656479880617_" gradientUnits="userSpaceOnUse" x1="119.7926" y1="251.3885" x2="119.7926" y2="272.4421">
					<stop  offset="0" style="stop-color:#71D2F9"/>
					<stop  offset="1" style="stop-color:#51B9F8"/>
				</linearGradient>
				<path id="XMLID_164_" style="fill:url(#XMLID_00000005249704391626549070000008066916656479880617_);" d="M104.98,266.638
					c0,0,8.062,2.037,12,10.017c0,0,5.665-14.124,17.625-20.034c0,0-8.932-0.817-18.057,12.704
					C116.548,269.324,110.98,264.988,104.98,266.638z"/>
			</g>
			<g id="XMLID_654_">
				<path id="XMLID_657_" style="fill:#FFFFFF;" d="M387.534,144.372h-18.706c-2.734,0-4.95-2.216-4.95-4.95v-18.706
					c0-2.734,2.216-4.95,4.951-4.95h18.706c2.734,0,4.951,2.216,4.951,4.95v18.706C392.485,142.155,390.268,144.372,387.534,144.372
					z"/>
				
					<linearGradient id="XMLID_00000148620310470941192790000002753499421079410593_" gradientUnits="userSpaceOnUse" x1="380.6712" y1="117.4302" x2="380.6712" y2="139.939">
					<stop  offset="0" style="stop-color:#71D2F9"/>
					<stop  offset="1" style="stop-color:#51B9F8"/>
				</linearGradient>
				<path id="XMLID_656_" style="fill:url(#XMLID_00000148620310470941192790000002753499421079410593_);" d="M365.859,131.301
					c0,0,8.063,2.037,12,10.017c0,0,5.666-14.124,17.625-20.034c0,0-8.932-0.817-18.057,12.704
					C377.427,133.988,371.859,129.652,365.859,131.301z"/>
			</g>
		</g>
		<g id="XMLID_612_">
			
				<linearGradient id="XMLID_00000015336197649171604910000000651968368024692908_" gradientUnits="userSpaceOnUse" x1="359.3516" y1="78.7732" x2="293.0807" y2="194.9947">
				<stop  offset="0" style="stop-color:#71D2F9"/>
				<stop  offset="1" style="stop-color:#51B9F8"/>
			</linearGradient>
			<path id="XMLID_106_" style="fill:url(#XMLID_00000015336197649171604910000000651968368024692908_);" d="M349.352,178.503
				h-52.613c-1.075,0-1.947-0.872-1.947-1.947v-68.219c0-1.076,0.872-1.947,1.947-1.947h52.613c1.075,0,1.947,0.872,1.947,1.947
				v68.219C351.299,177.631,350.427,178.503,349.352,178.503z"/>
			<path id="XMLID_208_" style="fill:#FFFFFF;" d="M346.129,174.753H299.96c-0.7,0-1.268-0.568-1.268-1.268v-62.577
				c0-0.701,0.568-1.268,1.268-1.268h46.169c0.7,0,1.268,0.568,1.268,1.268v62.577C347.398,174.185,346.83,174.753,346.129,174.753z
				"/>
			<path id="XMLID_205_" style="fill:#8FABD8;" d="M334.471,111.888h-22.852v-5.899c0-1.114,0.903-2.018,2.018-2.018h18.817
				c1.114,0,2.018,0.903,2.018,2.018V111.888z"/>
			<g id="XMLID_611_">
				<g id="XMLID_277_">
					<g id="XMLID_218_">
						
							<linearGradient id="XMLID_00000178895634385437113730000005518896941155143828_" gradientUnits="userSpaceOnUse" x1="298.6172" y1="115.3094" x2="340.492" y2="173.3093">
							<stop  offset="0" style="stop-color:#CBE1F2"/>
							<stop  offset="1" style="stop-color:#AED2ED"/>
						</linearGradient>
						<path id="XMLID_318_" style="fill:url(#XMLID_00000178895634385437113730000005518896941155143828_);" d="M310.958,133.235
							h-7.148c-1.217,0-2.208-0.991-2.208-2.208v-7.148c0-1.217,0.991-2.208,2.208-2.208h7.148c1.217,0,2.208,0.991,2.208,2.208
							v7.148C313.166,132.244,312.176,133.235,310.958,133.235z M303.81,122.671c-0.666,0-1.208,0.542-1.208,1.208v7.148
							c0,0.666,0.542,1.208,1.208,1.208h7.148c0.666,0,1.208-0.542,1.208-1.208v-7.148c0-0.666-0.542-1.208-1.208-1.208H303.81z"/>
					</g>
					<g id="XMLID_281_">
						
							<linearGradient id="XMLID_00000097460748667346706020000003848682395860697218_" gradientUnits="userSpaceOnUse" x1="314.5912" y1="103.7765" x2="356.4662" y2="161.7765">
							<stop  offset="0" style="stop-color:#CBE1F2"/>
							<stop  offset="1" style="stop-color:#AED2ED"/>
						</linearGradient>
						<path id="XMLID_311_" style="fill:url(#XMLID_00000097460748667346706020000003848682395860697218_);" d="M342.602,124.837
							h-26.333c-0.276,0-0.5-0.224-0.5-0.5c0-0.276,0.224-0.5,0.5-0.5h26.333c0.276,0,0.5,0.224,0.5,0.5
							C343.102,124.614,342.879,124.837,342.602,124.837z"/>
					</g>
					<g id="XMLID_282_">
						
							<linearGradient id="XMLID_00000003789332084862082510000007391997469792702345_" gradientUnits="userSpaceOnUse" x1="313.1125" y1="104.8441" x2="354.9875" y2="162.8442">
							<stop  offset="0" style="stop-color:#CBE1F2"/>
							<stop  offset="1" style="stop-color:#AED2ED"/>
						</linearGradient>
						<path id="XMLID_310_" style="fill:url(#XMLID_00000003789332084862082510000007391997469792702345_);" d="M342.602,127.953
							h-26.333c-0.276,0-0.5-0.224-0.5-0.5c0-0.276,0.224-0.5,0.5-0.5h26.333c0.276,0,0.5,0.224,0.5,0.5
							C343.102,127.729,342.879,127.953,342.602,127.953z"/>
					</g>
					<g id="XMLID_301_">
						
							<linearGradient id="XMLID_00000132794960079339588470000002139836687489031300_" gradientUnits="userSpaceOnUse" x1="307.635" y1="108.7987" x2="349.51" y2="166.7987">
							<stop  offset="0" style="stop-color:#CBE1F2"/>
							<stop  offset="1" style="stop-color:#AED2ED"/>
						</linearGradient>
						<path id="XMLID_306_" style="fill:url(#XMLID_00000132794960079339588470000002139836687489031300_);" d="M330.435,131.068
							h-14.167c-0.276,0-0.5-0.224-0.5-0.5c0-0.276,0.224-0.5,0.5-0.5h14.167c0.276,0,0.5,0.224,0.5,0.5
							C330.935,130.844,330.712,131.068,330.435,131.068z"/>
					</g>
				</g>
				<g id="XMLID_388_">
					<g id="XMLID_583_">
						
							<linearGradient id="XMLID_00000116236164726425827260000015060664797492143013_" gradientUnits="userSpaceOnUse" x1="289.6608" y1="121.7759" x2="331.5357" y2="179.7757">
							<stop  offset="0" style="stop-color:#CBE1F2"/>
							<stop  offset="1" style="stop-color:#AED2ED"/>
						</linearGradient>
						<path id="XMLID_585_" style="fill:url(#XMLID_00000116236164726425827260000015060664797492143013_);" d="M310.958,152.106
							h-7.148c-1.217,0-2.208-0.991-2.208-2.208v-7.148c0-1.217,0.991-2.208,2.208-2.208h7.148c1.217,0,2.208,0.991,2.208,2.208
							v7.148C313.166,151.116,312.176,152.106,310.958,152.106z M303.81,141.542c-0.666,0-1.208,0.542-1.208,1.208v7.148
							c0,0.666,0.542,1.208,1.208,1.208h7.148c0.666,0,1.208-0.542,1.208-1.208v-7.148c0-0.666-0.542-1.208-1.208-1.208H303.81z"/>
					</g>
					<g id="XMLID_578_">
						
							<linearGradient id="XMLID_00000132786888247146803000000011464283777925321607_" gradientUnits="userSpaceOnUse" x1="305.6347" y1="110.2428" x2="347.5097" y2="168.2428">
							<stop  offset="0" style="stop-color:#CBE1F2"/>
							<stop  offset="1" style="stop-color:#AED2ED"/>
						</linearGradient>
						<path id="XMLID_580_" style="fill:url(#XMLID_00000132786888247146803000000011464283777925321607_);" d="M342.602,143.709
							h-26.333c-0.276,0-0.5-0.224-0.5-0.5c0-0.276,0.224-0.5,0.5-0.5h26.333c0.276,0,0.5,0.224,0.5,0.5
							C343.102,143.485,342.879,143.709,342.602,143.709z"/>
					</g>
					<g id="XMLID_412_">
						
							<linearGradient id="XMLID_00000175286713930629909470000004116870179266111933_" gradientUnits="userSpaceOnUse" x1="304.156" y1="111.3104" x2="346.031" y2="169.3105">
							<stop  offset="0" style="stop-color:#CBE1F2"/>
							<stop  offset="1" style="stop-color:#AED2ED"/>
						</linearGradient>
						<path id="XMLID_415_" style="fill:url(#XMLID_00000175286713930629909470000004116870179266111933_);" d="M342.602,146.825
							h-26.333c-0.276,0-0.5-0.224-0.5-0.5s0.224-0.5,0.5-0.5h26.333c0.276,0,0.5,0.224,0.5,0.5S342.879,146.825,342.602,146.825z"
							/>
					</g>
					<g id="XMLID_389_">
						
							<linearGradient id="XMLID_00000007413165967478019870000014992213834529678015_" gradientUnits="userSpaceOnUse" x1="298.6786" y1="115.2651" x2="340.5535" y2="173.2651">
							<stop  offset="0" style="stop-color:#CBE1F2"/>
							<stop  offset="1" style="stop-color:#AED2ED"/>
						</linearGradient>
						<path id="XMLID_392_" style="fill:url(#XMLID_00000007413165967478019870000014992213834529678015_);" d="M330.435,149.94
							h-14.167c-0.276,0-0.5-0.224-0.5-0.5c0-0.276,0.224-0.5,0.5-0.5h14.167c0.276,0,0.5,0.224,0.5,0.5
							C330.935,149.716,330.712,149.94,330.435,149.94z"/>
					</g>
				</g>
				<g id="XMLID_591_">
					<g id="XMLID_606_">
						
							<linearGradient id="XMLID_00000021812319298225259690000006164018556144988060_" gradientUnits="userSpaceOnUse" x1="280.7044" y1="128.2422" x2="322.5793" y2="186.2421">
							<stop  offset="0" style="stop-color:#CBE1F2"/>
							<stop  offset="1" style="stop-color:#AED2ED"/>
						</linearGradient>
						<path id="XMLID_607_" style="fill:url(#XMLID_00000021812319298225259690000006164018556144988060_);" d="M310.958,170.978
							h-7.148c-1.217,0-2.208-0.991-2.208-2.208v-7.148c0-1.217,0.991-2.208,2.208-2.208h7.148c1.217,0,2.208,0.991,2.208,2.208
							v7.148C313.166,169.987,312.176,170.978,310.958,170.978z M303.81,160.414c-0.666,0-1.208,0.542-1.208,1.208v7.148
							c0,0.666,0.542,1.208,1.208,1.208h7.148c0.666,0,1.208-0.542,1.208-1.208v-7.148c0-0.666-0.542-1.208-1.208-1.208H303.81z"/>
					</g>
					<g id="XMLID_600_">
						
							<linearGradient id="XMLID_00000005264226261666334610000006798161570071152022_" gradientUnits="userSpaceOnUse" x1="296.6784" y1="116.7093" x2="338.5533" y2="174.7093">
							<stop  offset="0" style="stop-color:#CBE1F2"/>
							<stop  offset="1" style="stop-color:#AED2ED"/>
						</linearGradient>
						<path id="XMLID_603_" style="fill:url(#XMLID_00000005264226261666334610000006798161570071152022_);" d="M342.602,162.581
							h-26.333c-0.276,0-0.5-0.224-0.5-0.5c0-0.276,0.224-0.5,0.5-0.5h26.333c0.276,0,0.5,0.224,0.5,0.5
							C343.102,162.357,342.879,162.581,342.602,162.581z"/>
					</g>
					<g id="XMLID_595_">
						
							<linearGradient id="XMLID_00000182513606911648690010000009332767737489483414_" gradientUnits="userSpaceOnUse" x1="295.1997" y1="117.7769" x2="337.0746" y2="175.7769">
							<stop  offset="0" style="stop-color:#CBE1F2"/>
							<stop  offset="1" style="stop-color:#AED2ED"/>
						</linearGradient>
						<path id="XMLID_597_" style="fill:url(#XMLID_00000182513606911648690010000009332767737489483414_);" d="M342.602,165.696
							h-26.333c-0.276,0-0.5-0.224-0.5-0.5c0-0.276,0.224-0.5,0.5-0.5h26.333c0.276,0,0.5,0.224,0.5,0.5
							C343.102,165.473,342.879,165.696,342.602,165.696z"/>
					</g>
					<g id="XMLID_592_">
						
							<linearGradient id="XMLID_00000101097350351229712600000001836061832141641888_" gradientUnits="userSpaceOnUse" x1="289.7221" y1="121.7313" x2="331.5971" y2="179.7314">
							<stop  offset="0" style="stop-color:#CBE1F2"/>
							<stop  offset="1" style="stop-color:#AED2ED"/>
						</linearGradient>
						<path id="XMLID_593_" style="fill:url(#XMLID_00000101097350351229712600000001836061832141641888_);" d="M330.435,168.811
							h-14.167c-0.276,0-0.5-0.224-0.5-0.5c0-0.276,0.224-0.5,0.5-0.5h14.167c0.276,0,0.5,0.224,0.5,0.5
							C330.935,168.588,330.712,168.811,330.435,168.811z"/>
					</g>
				</g>
				
					<linearGradient id="XMLID_00000039124142142153381620000016424848528531395768_" gradientUnits="userSpaceOnUse" x1="313.9889" y1="104.2113" x2="355.8638" y2="162.2112">
					<stop  offset="0" style="stop-color:#CBE1F2"/>
					<stop  offset="1" style="stop-color:#AED2ED"/>
				</linearGradient>
				<path id="XMLID_315_" style="fill:url(#XMLID_00000039124142142153381620000016424848528531395768_);" d="M337.415,119.055
					H309.29c-0.518,0-0.938-0.42-0.938-0.938v-1.875c0-0.518,0.42-0.938,0.938-0.938h28.125c0.518,0,0.938,0.42,0.938,0.938v1.875
					C338.352,118.635,337.932,119.055,337.415,119.055z"/>
			</g>
			
				<linearGradient id="XMLID_00000086681843279059040760000003283446780521370003_" gradientUnits="userSpaceOnUse" x1="300.9145" y1="125.536" x2="315.7898" y2="125.536">
				<stop  offset="0" style="stop-color:#71D2F9"/>
				<stop  offset="1" style="stop-color:#51B9F8"/>
			</linearGradient>
			<path id="XMLID_614_" style="fill:url(#XMLID_00000086681843279059040760000003283446780521370003_);" d="M300.914,125.538
				c0,0,4.048,1.023,6.025,5.03c0,0,2.845-7.092,8.85-10.06c0,0-4.485-0.41-9.067,6.379
				C306.723,126.887,303.927,124.71,300.914,125.538z"/>
			
				<linearGradient id="XMLID_00000103231585510845340720000009088633540502367105_" gradientUnits="userSpaceOnUse" x1="300.9145" y1="144.4077" x2="315.7898" y2="144.4077">
				<stop  offset="0" style="stop-color:#71D2F9"/>
				<stop  offset="1" style="stop-color:#51B9F8"/>
			</linearGradient>
			<path id="XMLID_616_" style="fill:url(#XMLID_00000103231585510845340720000009088633540502367105_);" d="M300.914,144.41
				c0,0,4.048,1.023,6.025,5.03c0,0,2.845-7.092,8.85-10.06c0,0-4.485-0.41-9.067,6.379
				C306.723,145.759,303.927,143.582,300.914,144.41z"/>
		</g>
		<g id="XMLID_617_">
			<g id="XMLID_628_">
				
					<linearGradient id="XMLID_00000101066597567575425990000011737764724399598247_" gradientUnits="userSpaceOnUse" x1="185.3739" y1="390.2484" x2="242.8876" y2="444.3284">
					<stop  offset="0" style="stop-color:#FFE2B1"/>
					<stop  offset="1" style="stop-color:#FFD496"/>
				</linearGradient>
				
					<rect id="XMLID_636_" x="182.632" y="387.188" style="fill:url(#XMLID_00000101066597567575425990000011737764724399598247_);" width="56.21" height="53.819"/>
				
					<linearGradient id="XMLID_00000102532101244755624800000004898951376895492267_" gradientUnits="userSpaceOnUse" x1="216.7214" y1="414.0976" x2="269.7239" y2="414.0976">
					<stop  offset="0" style="stop-color:#EEC787"/>
					<stop  offset="1" style="stop-color:#FFD496"/>
				</linearGradient>
				<polygon id="XMLID_635_" style="fill:url(#XMLID_00000102532101244755624800000004898951376895492267_);" points="
					238.842,441.007 247.266,441.007 247.266,387.188 238.842,387.188 				"/>
				
					<linearGradient id="XMLID_00000084519145123393548530000008263644981107830416_" gradientUnits="userSpaceOnUse" x1="181.22" y1="391.2631" x2="240.6321" y2="391.2631">
					<stop  offset="0" style="stop-color:#FFE2B1"/>
					<stop  offset="1" style="stop-color:#FFD496"/>
				</linearGradient>
				
					<rect id="XMLID_633_" x="206.016" y="387.188" style="opacity:0.5;fill:url(#XMLID_00000084519145123393548530000008263644981107830416_);" width="9.443" height="8.15"/>
				
					<linearGradient id="XMLID_00000127031483334622321080000003207523465737303992_" gradientUnits="userSpaceOnUse" x1="165.7517" y1="434.8517" x2="215.3747" y2="434.8517">
					<stop  offset="0" style="stop-color:#EEC787"/>
					<stop  offset="1" style="stop-color:#FFD496"/>
				</linearGradient>
				<path id="XMLID_632_" style="opacity:0.5;fill:url(#XMLID_00000127031483334622321080000003207523465737303992_);" d="
					M193.13,438.795h-5.449c-0.673,0-1.219-0.546-1.219-1.219v-5.449c0-0.673,0.546-1.219,1.219-1.219h5.449
					c0.673,0,1.219,0.546,1.219,1.219v5.449C194.349,438.249,193.803,438.795,193.13,438.795z"/>
				
					<linearGradient id="XMLID_00000160895082548389281430000006675793150756324527_" gradientUnits="userSpaceOnUse" x1="175.4388" y1="434.8517" x2="225.0612" y2="434.8517">
					<stop  offset="0" style="stop-color:#EEC787"/>
					<stop  offset="1" style="stop-color:#FFD496"/>
				</linearGradient>
				<path id="XMLID_631_" style="opacity:0.5;fill:url(#XMLID_00000160895082548389281430000006675793150756324527_);" d="
					M202.817,438.795h-5.449c-0.673,0-1.219-0.546-1.219-1.219v-5.449c0-0.673,0.546-1.219,1.219-1.219h5.449
					c0.673,0,1.219,0.546,1.219,1.219v5.449C204.036,438.249,203.49,438.795,202.817,438.795z"/>
				
					<linearGradient id="XMLID_00000152252982784232458690000004826213585049713303_" gradientUnits="userSpaceOnUse" x1="185.1254" y1="434.8517" x2="234.7484" y2="434.8517">
					<stop  offset="0" style="stop-color:#EEC787"/>
					<stop  offset="1" style="stop-color:#FFD496"/>
				</linearGradient>
				<path id="XMLID_629_" style="opacity:0.5;fill:url(#XMLID_00000152252982784232458690000004826213585049713303_);" d="
					M212.504,438.795h-5.449c-0.673,0-1.219-0.546-1.219-1.219v-5.449c0-0.673,0.546-1.219,1.219-1.219h5.449
					c0.673,0,1.219,0.546,1.219,1.219v5.449C213.723,438.249,213.177,438.795,212.504,438.795z"/>
			</g>
			<g id="XMLID_638_">
				
					<linearGradient id="XMLID_00000122718351745618204870000007480047005209113265_" gradientUnits="userSpaceOnUse" x1="228.3901" y1="336.4292" x2="285.9037" y2="390.5092">
					<stop  offset="0" style="stop-color:#FFE2B1"/>
					<stop  offset="1" style="stop-color:#FFD496"/>
				</linearGradient>
				
					<rect id="XMLID_652_" x="225.648" y="333.369" style="fill:url(#XMLID_00000122718351745618204870000007480047005209113265_);" width="56.21" height="53.819"/>
				
					<linearGradient id="XMLID_00000123400940316454221630000003880270579081952671_" gradientUnits="userSpaceOnUse" x1="259.7373" y1="360.2784" x2="312.7404" y2="360.2784">
					<stop  offset="0" style="stop-color:#EEC787"/>
					<stop  offset="1" style="stop-color:#FFD496"/>
				</linearGradient>
				<polygon id="XMLID_651_" style="fill:url(#XMLID_00000123400940316454221630000003880270579081952671_);" points="
					281.859,387.188 290.283,387.188 290.283,333.369 281.859,333.369 				"/>
				
					<linearGradient id="XMLID_00000076571751696632923410000016286678549058182562_" gradientUnits="userSpaceOnUse" x1="224.2361" y1="337.4439" x2="283.6482" y2="337.4439">
					<stop  offset="0" style="stop-color:#FFE2B1"/>
					<stop  offset="1" style="stop-color:#FFD496"/>
				</linearGradient>
				
					<rect id="XMLID_650_" x="249.032" y="333.369" style="opacity:0.5;fill:url(#XMLID_00000076571751696632923410000016286678549058182562_);" width="9.443" height="8.15"/>
				
					<linearGradient id="XMLID_00000033347367811184562850000001329673482429046190_" gradientUnits="userSpaceOnUse" x1="208.7681" y1="381.0326" x2="258.3905" y2="381.0326">
					<stop  offset="0" style="stop-color:#EEC787"/>
					<stop  offset="1" style="stop-color:#FFD496"/>
				</linearGradient>
				<path id="XMLID_649_" style="opacity:0.5;fill:url(#XMLID_00000033347367811184562850000001329673482429046190_);" d="
					M236.146,384.976h-5.449c-0.673,0-1.219-0.546-1.219-1.219v-5.449c0-0.673,0.546-1.219,1.219-1.219h5.449
					c0.673,0,1.219,0.546,1.219,1.219v5.449C237.365,384.43,236.819,384.976,236.146,384.976z"/>
				
					<linearGradient id="XMLID_00000122707852665322520260000012785627875840025504_" gradientUnits="userSpaceOnUse" x1="218.4549" y1="381.0326" x2="268.0774" y2="381.0326">
					<stop  offset="0" style="stop-color:#EEC787"/>
					<stop  offset="1" style="stop-color:#FFD496"/>
				</linearGradient>
				<path id="XMLID_644_" style="opacity:0.5;fill:url(#XMLID_00000122707852665322520260000012785627875840025504_);" d="
					M245.833,384.976h-5.449c-0.673,0-1.219-0.546-1.219-1.219v-5.449c0-0.673,0.546-1.219,1.219-1.219h5.449
					c0.673,0,1.219,0.546,1.219,1.219v5.449C247.052,384.43,246.506,384.976,245.833,384.976z"/>
				
					<linearGradient id="XMLID_00000013164584235042165960000000853645030177085115_" gradientUnits="userSpaceOnUse" x1="228.1418" y1="381.0326" x2="277.7642" y2="381.0326">
					<stop  offset="0" style="stop-color:#EEC787"/>
					<stop  offset="1" style="stop-color:#FFD496"/>
				</linearGradient>
				<path id="XMLID_639_" style="opacity:0.5;fill:url(#XMLID_00000013164584235042165960000000853645030177085115_);" d="
					M255.52,384.976h-5.449c-0.673,0-1.219-0.546-1.219-1.219v-5.449c0-0.673,0.546-1.219,1.219-1.219h5.449
					c0.673,0,1.219,0.546,1.219,1.219v5.449C256.739,384.43,256.193,384.976,255.52,384.976z"/>
			</g>
			<g id="XMLID_624_">
				
					<linearGradient id="XMLID_00000140008964110523601960000008752025567049735091_" gradientUnits="userSpaceOnUse" x1="246.1779" y1="390.2484" x2="303.6916" y2="444.3284">
					<stop  offset="0" style="stop-color:#FFE2B1"/>
					<stop  offset="1" style="stop-color:#FFD496"/>
				</linearGradient>
				
					<rect id="XMLID_619_" x="243.436" y="387.188" style="fill:url(#XMLID_00000140008964110523601960000008752025567049735091_);" width="56.21" height="53.819"/>
				
					<linearGradient id="XMLID_00000072270264556235011700000009110741886538302636_" gradientUnits="userSpaceOnUse" x1="277.5254" y1="414.0976" x2="330.5279" y2="414.0976">
					<stop  offset="0" style="stop-color:#EEC787"/>
					<stop  offset="1" style="stop-color:#FFD496"/>
				</linearGradient>
				<polygon id="XMLID_620_" style="fill:url(#XMLID_00000072270264556235011700000009110741886538302636_);" points="
					299.646,441.007 308.07,441.007 308.07,387.188 299.646,387.188 				"/>
				
					<linearGradient id="XMLID_00000025416415750748558340000003369143690832957573_" gradientUnits="userSpaceOnUse" x1="242.024" y1="391.2631" x2="301.4361" y2="391.2631">
					<stop  offset="0" style="stop-color:#FFE2B1"/>
					<stop  offset="1" style="stop-color:#FFD496"/>
				</linearGradient>
				
					<rect id="XMLID_622_" x="266.82" y="387.188" style="opacity:0.5;fill:url(#XMLID_00000025416415750748558340000003369143690832957573_);" width="9.443" height="8.15"/>
				
					<linearGradient id="XMLID_00000173873456732226915020000010536588149949198271_" gradientUnits="userSpaceOnUse" x1="226.5557" y1="434.8517" x2="276.1787" y2="434.8517">
					<stop  offset="0" style="stop-color:#EEC787"/>
					<stop  offset="1" style="stop-color:#FFD496"/>
				</linearGradient>
				<path id="XMLID_623_" style="opacity:0.5;fill:url(#XMLID_00000173873456732226915020000010536588149949198271_);" d="
					M253.934,438.795h-5.449c-0.673,0-1.219-0.546-1.219-1.219v-5.449c0-0.673,0.546-1.219,1.219-1.219h5.449
					c0.673,0,1.219,0.546,1.219,1.219v5.449C255.153,438.249,254.607,438.795,253.934,438.795z"/>
				
					<linearGradient id="XMLID_00000008106720556727004430000004802841064425471408_" gradientUnits="userSpaceOnUse" x1="236.2428" y1="434.8517" x2="285.8652" y2="434.8517">
					<stop  offset="0" style="stop-color:#EEC787"/>
					<stop  offset="1" style="stop-color:#FFD496"/>
				</linearGradient>
				<path id="XMLID_626_" style="opacity:0.5;fill:url(#XMLID_00000008106720556727004430000004802841064425471408_);" d="
					M263.621,438.795h-5.449c-0.673,0-1.219-0.546-1.219-1.219v-5.449c0-0.673,0.546-1.219,1.219-1.219h5.449
					c0.673,0,1.219,0.546,1.219,1.219v5.449C264.84,438.249,264.294,438.795,263.621,438.795z"/>
				
					<linearGradient id="XMLID_00000036218343959584266810000008574785207614900099_" gradientUnits="userSpaceOnUse" x1="245.9294" y1="434.8517" x2="295.5524" y2="434.8517">
					<stop  offset="0" style="stop-color:#EEC787"/>
					<stop  offset="1" style="stop-color:#FFD496"/>
				</linearGradient>
				<path id="XMLID_627_" style="opacity:0.5;fill:url(#XMLID_00000036218343959584266810000008574785207614900099_);" d="
					M273.308,438.795h-5.449c-0.673,0-1.219-0.546-1.219-1.219v-5.449c0-0.673,0.546-1.219,1.219-1.219h5.449
					c0.673,0,1.219,0.546,1.219,1.219v5.449C274.527,438.249,273.981,438.795,273.308,438.795z"/>
			</g>
		</g>
		<g id="XMLID_137_">
			<path id="XMLID_216_" style="fill:#EF9795;" d="M131.422,427.93c2.094,0.875,4.198,1.021,4.198,1.021l1.942-3.127l-6.171-5.706
				c0,0-1.45,4.028-2.25,5.688C129.141,425.805,129.328,427.055,131.422,427.93z"/>
			<path id="XMLID_143_" style="fill:#222842;" d="M142.185,437.267c-0.464-0.511-2.336-1.503-4.074-2.516
				c-2.111-2.592-1.977-5.159-2.492-5.8c0,0-2.057-0.374-4.151-1.249c-2.094-0.875-2.329-1.897-2.329-1.897
				c-0.969,0.688-3.667,2.313-5.104,6.125c0,0,8.083,6.792,10.373,8.614c0,0,6.841-0.007,8.586,0
				C143.273,439.682,143.399,438.603,142.185,437.267z"/>
			<path id="XMLID_602_" style="fill:#222842;" d="M175.409,433.417c0,0,1.319,0.839,4.603,0.587
				c0.523-0.04,2.396-0.361,3.159-0.587c0,0,1.491,0.733,3.719,1.514c2.134,0.747,4.962,1.51,7.021,2.938
				c1.492,1.034,1.232,2.669,1.232,2.669l-19.469,0.007c-0.432,0-0.831-0.234-1.024-0.62
				C174.101,438.82,173.342,436.355,175.409,433.417z"/>
			
				<linearGradient id="XMLID_00000047051926009389415170000000135996649731653530_" gradientUnits="userSpaceOnUse" x1="151.9019" y1="425.3052" x2="151.9019" y2="325.399">
				<stop  offset="0" style="stop-color:#283770"/>
				<stop  offset="1" style="stop-color:#141A5A"/>
			</linearGradient>
			<path id="XMLID_140_" style="fill:url(#XMLID_00000047051926009389415170000000135996649731653530_);" d="M151.197,318.374
				c-2.007,4.118-3.257,8.205-3.51,13.523c-0.181,3.793,0.362,7.695,0.559,11.741c0.168,3.476,0.53,32.265,0.53,32.265
				s-5.999,10.32-8.184,16.487c-2.185,6.168-10.623,30.939-10.623,30.939c2.625,3.25,7.329,3.601,7.329,3.601
				s16.594-25.6,25.151-46.984c0.369-0.922,4.601-19.448,5.025-21.321c0.342-1.511,0.631-2.845,0.88-3.973
				c0.062-0.269,0.114-0.548,0.176-0.807c0.31-1.469,0.6-2.918,0.89-4.346c2.784-13.958,4.418-25.641,4.418-25.641L151.197,318.374z
				"/>
			
				<linearGradient id="XMLID_00000044879228238874828070000006902125943138463385_" gradientUnits="userSpaceOnUse" x1="163.9925" y1="347.8143" x2="169.4182" y2="347.8143">
				<stop  offset="0" style="stop-color:#283770"/>
				<stop  offset="1" style="stop-color:#141A5A"/>
			</linearGradient>
			<path id="XMLID_599_" style="opacity:0.5;fill:url(#XMLID_00000044879228238874828070000006902125943138463385_);" d="
				M169.418,349.499c-0.29,1.428-0.579,2.877-0.89,4.346c-0.062,0.259-0.114,0.538-0.176,0.807c-0.248,1.128-0.538,2.463-0.88,3.973
				c-0.766-4.408-2.128-9.773-3.084-14.913c-1.371-7.369,1.253-6.693,1.253-6.693L169.418,349.499z"/>
			<path id="XMLID_204_" style="fill:#EF9795;" d="M175.161,429.243c0.211,2.269,0.248,4.174,0.248,4.174
				c2.52,1.797,7.763,0,7.763,0s0.085-2.029,0.231-4.174C183.403,429.243,175.162,429.243,175.161,429.243z"/>
			
				<linearGradient id="XMLID_00000017475139064218365060000013672507936816241053_" gradientUnits="userSpaceOnUse" x1="174.947" y1="425.3052" x2="174.947" y2="325.399">
				<stop  offset="0" style="stop-color:#283770"/>
				<stop  offset="1" style="stop-color:#141A5A"/>
			</linearGradient>
			<path id="XMLID_142_" style="fill:url(#XMLID_00000017475139064218365060000013672507936816241053_);" d="M185.411,319.875
				h-22.448c-1.242,4.403-1.54,7.328-0.862,14.667c0.677,7.339,4.611,13.874,5.514,17.825c0.903,3.952,5.018,24.187,5.018,24.187
				s-1.603,12.645-1.716,19.187c-0.09,5.22,2.209,26.385,3.39,34.609c0.001,0,5.513,0.656,9.292-0.024
				c0,0,2.818-30.491,4.154-53.938c0.595-10.442,0.203-19.417,0.325-23.799C188.659,331.653,185.411,319.875,185.411,319.875z"/>
			<path id="XMLID_265_" style="fill:#FFA49A;" d="M178.88,246.536c-0.276-4.213-1.02-8.122-1.02-8.122
				c-0.4-4.766-7.025-5.262-10.867-5.119c-3.842,0.143-10.953,4.385-6.339,14.461c0.856,1.868,2.006,2.521,3.221,2.753
				c0.886,7.102-0.3,13.331-0.3,13.331c3.342,0.787,7.49,0.33,9.909-0.068c1.234-0.204,2.021-0.398,2.021-0.398
				c-0.603-4.163-0.806-5.975-0.938-7.132c2.658,0.313,3.637-0.624,3.637-0.624C179.49,253.854,179.127,250.225,178.88,246.536z"/>
			
				<linearGradient id="XMLID_00000106128791389304776840000016813820044596157842_" gradientUnits="userSpaceOnUse" x1="169.666" y1="257.4124" x2="169.666" y2="336.2215">
				<stop  offset="0" style="stop-color:#49A5F7"/>
				<stop  offset="1" style="stop-color:#1C6CEB"/>
			</linearGradient>
			<path id="XMLID_586_" style="fill:url(#XMLID_00000106128791389304776840000016813820044596157842_);" d="M162.745,262.555
				l0.865-3.765c0,0,5.1-2.294,12.385,1.166l0.593,1.981"/>
			<path id="XMLID_138_" style="fill:#FFA49A;" d="M147.682,288.626c0,0-1.063,8.18-0.688,9.867s8.125,6.938,8.125,6.938
				s0.375-14.563-0.313-16S147.682,288.626,147.682,288.626z"/>
			
				<linearGradient id="XMLID_00000034812693797499228040000009818589671141081010_" gradientUnits="userSpaceOnUse" x1="152.7597" y1="262.9847" x2="152.7597" y2="330.5613">
				<stop  offset="0" style="stop-color:#49A5F7"/>
				<stop  offset="1" style="stop-color:#1C6CEB"/>
			</linearGradient>
			<path id="XMLID_331_" style="fill:url(#XMLID_00000034812693797499228040000009818589671141081010_);" d="M158.875,292.555
				c-3.16,0.02-5.61-0.24-7.46-0.58c-3.4-0.63-4.77-1.54-4.77-1.54c1.83-16.88,7.37-22.46,7.37-22.46l4.37,22.1L158.875,292.555z"/>
			
				<linearGradient id="XMLID_00000018924362368049449020000012449845400644426145_" gradientUnits="userSpaceOnUse" x1="153.9124" y1="283.2871" x2="155.0791" y2="291.7871">
				<stop  offset="0" style="stop-color:#49A5F7"/>
				<stop  offset="1" style="stop-color:#1C6CEB"/>
			</linearGradient>
			<path id="XMLID_299_" style="opacity:0.5;fill:url(#XMLID_00000018924362368049449020000012449845400644426145_);" d="
				M158.875,292.555c-3.16,0.02-5.61-0.24-7.46-0.58c-0.01-3.92,0.05-8.5,0.05-8.5l4.26,1.08l2.66,5.52L158.875,292.555z"/>
			
				<linearGradient id="XMLID_00000106145874620769753020000007997114630039278504_" gradientUnits="userSpaceOnUse" x1="168.0838" y1="258.4537" x2="168.0838" y2="327.5703">
				<stop  offset="0" style="stop-color:#49A5F7"/>
				<stop  offset="1" style="stop-color:#1C6CEB"/>
			</linearGradient>
			<path id="XMLID_330_" style="fill:url(#XMLID_00000106145874620769753020000007997114630039278504_);" d="M183.995,308.725
				c0.89,8.67,2.4,14.23,2.72,15.74c-23.93,7.27-37.27,1.83-38.3,0.67c0.79-3.91,6.44-24.68,4.47-33.19
				c-2.17-9.41-2.17-17.46-0.27-21.77c2.76-6.22,13.68-9.12,13.68-9.12c2.01-0.56,9.41-0.95,13.28,1.33
				c4.71,2.77,7.93,4.65,7.93,4.65c1.34,3.86-3.13,9.32-4.26,13.85c-0.02,0.06-0.03,0.14-0.04,0.23c-0.13,0.87-0.22,3.13-0.22,6.18
				C182.975,292.975,183.245,301.405,183.995,308.725z"/>
			
				<linearGradient id="XMLID_00000012474635581483021160000011227955862870701497_" gradientUnits="userSpaceOnUse" x1="177.0247" y1="284.2052" x2="183.2047" y2="284.2052">
				<stop  offset="0" style="stop-color:#49A5F7"/>
				<stop  offset="1" style="stop-color:#1C6CEB"/>
			</linearGradient>
			<path id="XMLID_309_" style="opacity:0.5;fill:url(#XMLID_00000012474635581483021160000011227955862870701497_);" d="
				M183.205,281.115c-0.13,0.87-0.22,3.13-0.22,6.18l-5.96-5.58L183.205,281.115z"/>
			<path id="XMLID_271_" style="fill:#FFA49A;" d="M226.526,254.899c-0.156-0.719-1.063-1.156-1.063-1.156
				c-0.188-1.188-0.95-1.3-1.137-1.488s-0.258-0.673-0.667-0.902c-0.5-0.281-1.131-0.458-1.131-0.458s1.895-2.833,2.497-3.808
				c0.781-1.266,0.589-2.409,0.047-2.492c-0.542-0.083-1.911,2.002-2.661,2.836c-0.75,0.833-3.075,2.243-3.75,3.292
				c-0.728,1.131-1.391,4.705-1.591,5.862c-0.883,0.967-4.363,4.782-7.257,8.026c-1.161,1.3-3.485,3.829-4.991,5.317
				c-0.753,0.744-3.422,3.728-4.506,5.111c-1.016-0.644-2.102-1.336-3.239-2.057c0,0.003-1.083,5.099-5.231,11.458
				c5.841,2.055,11.384,3.246,13.109,2.141c0.163-0.105,0.32-0.227,0.47-0.362c0.057-0.029,0.11-0.069,0.161-0.121
				c2.936-3.024,7.403-11.523,10.986-17.887c2.178-3.868,4.185-6.86,4.73-7.659c2.557-0.098,3.162-2.183,3.162-2.183
				s0.031,1.688,0.844,1.589c0.282-0.034,0.497-0.614,0.766-1.245c0.301-0.708,0.734-1.874,0.734-2.141
				C226.807,256.066,226.682,255.618,226.526,254.899z"/>
			
				<linearGradient id="XMLID_00000041997763654178831700000014677522591867827626_" gradientUnits="userSpaceOnUse" x1="184.433" y1="258.3885" x2="184.433" y2="327.486">
				<stop  offset="0" style="stop-color:#49A5F7"/>
				<stop  offset="1" style="stop-color:#1C6CEB"/>
			</linearGradient>
			<path id="XMLID_141_" style="fill:url(#XMLID_00000041997763654178831700000014677522591867827626_);" d="M182.915,264.507
				c-4.448-2.047-8.792-0.728-10.51,1.547c0,0-4.757,5.399-1.122,10.859c2.528,3.798,11.413,8.333,21.021,11.713
				c5.272-8.082,6.648-14.558,6.648-14.562C193.655,270.703,187.61,266.923,182.915,264.507z"/>
			
				<linearGradient id="XMLID_00000021103596880694802380000017423886874950777732_" gradientUnits="userSpaceOnUse" x1="168.6855" y1="222.8885" x2="168.6855" y2="251.7224">
				<stop  offset="0" style="stop-color:#162959"/>
				<stop  offset="1" style="stop-color:#0B1B38"/>
			</linearGradient>
			<path id="XMLID_436_" style="fill:url(#XMLID_00000021103596880694802380000017423886874950777732_);" d="M179.463,231.993
				c-0.609,0.047-1.25,0.719-1.656,1.469c0.44-1.396,1-4.688-1.375-6.059c-2.463-1.422-3.623,0.776-6.601,2.825
				c-2.287,1.574-4.711,0.348-7.836,1.619c-5.173,2.104-3.896,6.73-3.896,6.73c-1.863,0.883-2.884,3.638-1.223,8.048
				c1.661,4.41,5.706,6.971,6.326,8.207c1.287,2.567,6.987,0.775,7.294-0.276c0.606-2.079,0.205-6.25-0.374-6.908
				c-1.409-1.6-2.004-3.609-1.066-4.43c1.585-1.388,2.471,1.717,2.471,1.717l1.618,0.768c0,0,0.663-2.007,0.579-3.956
				C182.682,240.149,182.476,231.761,179.463,231.993z"/>
			<path id="XMLID_418_" style="fill:#FFA49A;" d="M172.453,245.826c-0.052-0.775-0.216-2.207-1.109-3.001
				c-0.893-0.794-3.174-0.149-2.943,2.215c0.231,2.364,2.222,3.857,3.428,3.301C172.527,248.02,172.495,246.444,172.453,245.826z"/>
			
				<linearGradient id="XMLID_00000126305808648144207790000002057310004860766617_" gradientUnits="userSpaceOnUse" x1="171.0338" y1="261.938" x2="171.0338" y2="261.938">
				<stop  offset="0" style="stop-color:#49A5F7"/>
				<stop  offset="1" style="stop-color:#1C6CEB"/>
			</linearGradient>
			<path id="XMLID_135_" style="fill:url(#XMLID_00000126305808648144207790000002057310004860766617_);" d="M171.034,261.938"/>
		</g>
		<g id="XMLID_672_">
			
				<linearGradient id="XMLID_00000139988561125284590260000008307457101667318190_" gradientUnits="userSpaceOnUse" x1="464.8938" y1="219.663" x2="355.3708" y2="147.8382">
				<stop  offset="0" style="stop-color:#DFEDF2"/>
				<stop  offset="1" style="stop-color:#E8F8FF"/>
			</linearGradient>
			<path id="XMLID_669_" style="fill:url(#XMLID_00000139988561125284590260000008307457101667318190_);" d="M449.013,209.384
				h-76.914c-2.072,0-3.751-1.679-3.751-3.751v-43.209c0-2.072,1.68-3.751,3.751-3.751h76.914c2.072,0,3.751,1.679,3.751,3.751
				v43.209C452.764,207.704,451.084,209.384,449.013,209.384z"/>
			<g id="XMLID_663_">
				
					<linearGradient id="XMLID_00000013877769057942591770000010430469466179117700_" gradientUnits="userSpaceOnUse" x1="378.7689" y1="167.7765" x2="378.7689" y2="206.7619">
					<stop  offset="0" style="stop-color:#71D2F9"/>
					<stop  offset="1" style="stop-color:#51B9F8"/>
				</linearGradient>
				
					<rect id="XMLID_653_" x="374.769" y="190.961" style="fill:url(#XMLID_00000013877769057942591770000010430469466179117700_);" width="8" height="14.651"/>
				
					<linearGradient id="XMLID_00000125575113701456764660000006829698050192463263_" gradientUnits="userSpaceOnUse" x1="391.4837" y1="167.7765" x2="391.4837" y2="206.7619">
					<stop  offset="0" style="stop-color:#71D2F9"/>
					<stop  offset="1" style="stop-color:#51B9F8"/>
				</linearGradient>
				
					<rect id="XMLID_664_" x="387.484" y="182.455" style="fill:url(#XMLID_00000125575113701456764660000006829698050192463263_);" width="8" height="23.157"/>
				
					<linearGradient id="XMLID_00000044899976547309196650000015988513240436458912_" gradientUnits="userSpaceOnUse" x1="404.1984" y1="167.7762" x2="404.1984" y2="206.7618">
					<stop  offset="0" style="stop-color:#71D2F9"/>
					<stop  offset="1" style="stop-color:#51B9F8"/>
				</linearGradient>
				
					<rect id="XMLID_665_" x="400.198" y="198.967" style="fill:url(#XMLID_00000044899976547309196650000015988513240436458912_);" width="8" height="6.646"/>
				
					<linearGradient id="XMLID_00000104696451345111277420000014729758609831775114_" gradientUnits="userSpaceOnUse" x1="416.9132" y1="167.7765" x2="416.9132" y2="206.7617">
					<stop  offset="0" style="stop-color:#71D2F9"/>
					<stop  offset="1" style="stop-color:#51B9F8"/>
				</linearGradient>
				
					<rect id="XMLID_666_" x="412.913" y="184.769" style="fill:url(#XMLID_00000104696451345111277420000014729758609831775114_);" width="8" height="20.844"/>
				
					<linearGradient id="XMLID_00000078749370565661511390000002787543890531289496_" gradientUnits="userSpaceOnUse" x1="429.628" y1="167.7764" x2="429.628" y2="206.7617">
					<stop  offset="0" style="stop-color:#71D2F9"/>
					<stop  offset="1" style="stop-color:#51B9F8"/>
				</linearGradient>
				
					<rect id="XMLID_667_" x="425.628" y="187.463" style="fill:url(#XMLID_00000078749370565661511390000002787543890531289496_);" width="8" height="18.149"/>
				
					<linearGradient id="XMLID_00000175321542078848504180000003832240204664936098_" gradientUnits="userSpaceOnUse" x1="442.3427" y1="167.7766" x2="442.3427" y2="206.7618">
					<stop  offset="0" style="stop-color:#71D2F9"/>
					<stop  offset="1" style="stop-color:#51B9F8"/>
				</linearGradient>
				
					<rect id="XMLID_668_" x="438.343" y="171.93" style="fill:url(#XMLID_00000175321542078848504180000003832240204664936098_);" width="8" height="33.682"/>
			</g>
			
				<line id="XMLID_671_" style="fill:none;stroke:#FFFFFF;stroke-linecap:round;stroke-linejoin:round;stroke-miterlimit:10;" x1="371.681" y1="168.555" x2="449.431" y2="168.555"/>
			<circle id="XMLID_670_" style="fill:#FFFFFF;" cx="444.405" cy="163.68" r="1.938"/>
			<circle id="XMLID_673_" style="fill:#FFFFFF;" cx="436.334" cy="163.68" r="1.938"/>
			<circle id="XMLID_674_" style="fill:#FFFFFF;" cx="428.263" cy="163.68" r="1.938"/>
		</g>
		
			<line id="XMLID_26_" style="fill:none;stroke:#232230;stroke-linecap:round;stroke-linejoin:round;stroke-miterlimit:10;" x1="65.25" y1="441.009" x2="584.75" y2="441.009"/>
	</g>
</g>
<g id="TEXTS">
	<g id="XMLID_1_">
		
			<text transform="matrix(1 0 0 1 230.3512 288.054)" style="fill:#8FABD8; font-family:'Montserrat-ExtraBold'; font-size:88.0871px;">ERP</text>
	</g>
</g>
</svg>
